<?xml version="1.0" encoding="utf-8" standalone="no"?>
<!DOCTYPE svg PUBLIC "-//W3C//DTD SVG 1.1//EN"
  "http://www.w3.org/Graphics/SVG/1.1/DTD/svg11.dtd">
<!-- Created with matplotlib (http://matplotlib.org/) -->
<svg height="345.6pt" version="1.1" viewBox="0 0 460.8 345.6" width="460.8pt" xmlns="http://www.w3.org/2000/svg" xmlns:xlink="http://www.w3.org/1999/xlink">
 <defs>
  <style type="text/css">
*{stroke-linecap:butt;stroke-linejoin:round;}
  </style>
 </defs>
 <g id="figure_1">
  <g id="patch_1">
   <path d="M 0 345.6 
L 460.8 345.6 
L 460.8 0 
L 0 0 
z
" style="fill:#ffffff;"/>
  </g>
  <g id="axes_1">
   <g id="patch_2">
    <path d="M 57.6 307.584 
L 414.72 307.584 
L 414.72 41.472 
L 57.6 41.472 
z
" style="fill:#ffffff;"/>
   </g>
   <g id="matplotlib.axis_1">
    <g id="xtick_1">
     <g id="line2d_1">
      <defs>
       <path d="M 0 0 
L 0 3.5 
" id="m76ba1948d6" style="stroke:#000000;stroke-width:0.8;"/>
      </defs>
      <g>
       <use style="stroke:#000000;stroke-width:0.8;" x="73.824366" xlink:href="#m76ba1948d6" y="307.584"/>
      </g>
     </g>
     <g id="text_1">
      <!-- 0 -->
      <defs>
       <path d="M 31.78125 66.40625 
Q 24.171875 66.40625 20.328125 58.90625 
Q 16.5 51.421875 16.5 36.375 
Q 16.5 21.390625 20.328125 13.890625 
Q 24.171875 6.390625 31.78125 6.390625 
Q 39.453125 6.390625 43.28125 13.890625 
Q 47.125 21.390625 47.125 36.375 
Q 47.125 51.421875 43.28125 58.90625 
Q 39.453125 66.40625 31.78125 66.40625 
z
M 31.78125 74.21875 
Q 44.046875 74.21875 50.515625 64.515625 
Q 56.984375 54.828125 56.984375 36.375 
Q 56.984375 17.96875 50.515625 8.265625 
Q 44.046875 -1.421875 31.78125 -1.421875 
Q 19.53125 -1.421875 13.0625 8.265625 
Q 6.59375 17.96875 6.59375 36.375 
Q 6.59375 54.828125 13.0625 64.515625 
Q 19.53125 74.21875 31.78125 74.21875 
z
" id="DejaVuSans-30"/>
      </defs>
      <g transform="translate(70.643116 322.182437)scale(0.1 -0.1)">
       <use xlink:href="#DejaVuSans-30"/>
      </g>
     </g>
    </g>
    <g id="xtick_2">
     <g id="line2d_2">
      <g>
       <use style="stroke:#000000;stroke-width:0.8;" x="115.631122" xlink:href="#m76ba1948d6" y="307.584"/>
      </g>
     </g>
     <g id="text_2">
      <!-- 5000 -->
      <defs>
       <path d="M 10.796875 72.90625 
L 49.515625 72.90625 
L 49.515625 64.59375 
L 19.828125 64.59375 
L 19.828125 46.734375 
Q 21.96875 47.46875 24.109375 47.828125 
Q 26.265625 48.1875 28.421875 48.1875 
Q 40.625 48.1875 47.75 41.5 
Q 54.890625 34.8125 54.890625 23.390625 
Q 54.890625 11.625 47.5625 5.09375 
Q 40.234375 -1.421875 26.90625 -1.421875 
Q 22.3125 -1.421875 17.546875 -0.640625 
Q 12.796875 0.140625 7.71875 1.703125 
L 7.71875 11.625 
Q 12.109375 9.234375 16.796875 8.0625 
Q 21.484375 6.890625 26.703125 6.890625 
Q 35.15625 6.890625 40.078125 11.328125 
Q 45.015625 15.765625 45.015625 23.390625 
Q 45.015625 31 40.078125 35.4375 
Q 35.15625 39.890625 26.703125 39.890625 
Q 22.75 39.890625 18.8125 39.015625 
Q 14.890625 38.140625 10.796875 36.28125 
z
" id="DejaVuSans-35"/>
      </defs>
      <g transform="translate(102.906122 322.182437)scale(0.1 -0.1)">
       <use xlink:href="#DejaVuSans-35"/>
       <use x="63.623047" xlink:href="#DejaVuSans-30"/>
       <use x="127.246094" xlink:href="#DejaVuSans-30"/>
       <use x="190.869141" xlink:href="#DejaVuSans-30"/>
      </g>
     </g>
    </g>
    <g id="xtick_3">
     <g id="line2d_3">
      <g>
       <use style="stroke:#000000;stroke-width:0.8;" x="157.437878" xlink:href="#m76ba1948d6" y="307.584"/>
      </g>
     </g>
     <g id="text_3">
      <!-- 10000 -->
      <defs>
       <path d="M 12.40625 8.296875 
L 28.515625 8.296875 
L 28.515625 63.921875 
L 10.984375 60.40625 
L 10.984375 69.390625 
L 28.421875 72.90625 
L 38.28125 72.90625 
L 38.28125 8.296875 
L 54.390625 8.296875 
L 54.390625 0 
L 12.40625 0 
z
" id="DejaVuSans-31"/>
      </defs>
      <g transform="translate(141.531628 322.182437)scale(0.1 -0.1)">
       <use xlink:href="#DejaVuSans-31"/>
       <use x="63.623047" xlink:href="#DejaVuSans-30"/>
       <use x="127.246094" xlink:href="#DejaVuSans-30"/>
       <use x="190.869141" xlink:href="#DejaVuSans-30"/>
       <use x="254.492188" xlink:href="#DejaVuSans-30"/>
      </g>
     </g>
    </g>
    <g id="xtick_4">
     <g id="line2d_4">
      <g>
       <use style="stroke:#000000;stroke-width:0.8;" x="199.244634" xlink:href="#m76ba1948d6" y="307.584"/>
      </g>
     </g>
     <g id="text_4">
      <!-- 15000 -->
      <g transform="translate(183.338384 322.182437)scale(0.1 -0.1)">
       <use xlink:href="#DejaVuSans-31"/>
       <use x="63.623047" xlink:href="#DejaVuSans-35"/>
       <use x="127.246094" xlink:href="#DejaVuSans-30"/>
       <use x="190.869141" xlink:href="#DejaVuSans-30"/>
       <use x="254.492188" xlink:href="#DejaVuSans-30"/>
      </g>
     </g>
    </g>
    <g id="xtick_5">
     <g id="line2d_5">
      <g>
       <use style="stroke:#000000;stroke-width:0.8;" x="241.05139" xlink:href="#m76ba1948d6" y="307.584"/>
      </g>
     </g>
     <g id="text_5">
      <!-- 20000 -->
      <defs>
       <path d="M 19.1875 8.296875 
L 53.609375 8.296875 
L 53.609375 0 
L 7.328125 0 
L 7.328125 8.296875 
Q 12.9375 14.109375 22.625 23.890625 
Q 32.328125 33.6875 34.8125 36.53125 
Q 39.546875 41.84375 41.421875 45.53125 
Q 43.3125 49.21875 43.3125 52.78125 
Q 43.3125 58.59375 39.234375 62.25 
Q 35.15625 65.921875 28.609375 65.921875 
Q 23.96875 65.921875 18.8125 64.3125 
Q 13.671875 62.703125 7.8125 59.421875 
L 7.8125 69.390625 
Q 13.765625 71.78125 18.9375 73 
Q 24.125 74.21875 28.421875 74.21875 
Q 39.75 74.21875 46.484375 68.546875 
Q 53.21875 62.890625 53.21875 53.421875 
Q 53.21875 48.921875 51.53125 44.890625 
Q 49.859375 40.875 45.40625 35.40625 
Q 44.1875 33.984375 37.640625 27.21875 
Q 31.109375 20.453125 19.1875 8.296875 
z
" id="DejaVuSans-32"/>
      </defs>
      <g transform="translate(225.14514 322.182437)scale(0.1 -0.1)">
       <use xlink:href="#DejaVuSans-32"/>
       <use x="63.623047" xlink:href="#DejaVuSans-30"/>
       <use x="127.246094" xlink:href="#DejaVuSans-30"/>
       <use x="190.869141" xlink:href="#DejaVuSans-30"/>
       <use x="254.492188" xlink:href="#DejaVuSans-30"/>
      </g>
     </g>
    </g>
    <g id="xtick_6">
     <g id="line2d_6">
      <g>
       <use style="stroke:#000000;stroke-width:0.8;" x="282.858147" xlink:href="#m76ba1948d6" y="307.584"/>
      </g>
     </g>
     <g id="text_6">
      <!-- 25000 -->
      <g transform="translate(266.951897 322.182437)scale(0.1 -0.1)">
       <use xlink:href="#DejaVuSans-32"/>
       <use x="63.623047" xlink:href="#DejaVuSans-35"/>
       <use x="127.246094" xlink:href="#DejaVuSans-30"/>
       <use x="190.869141" xlink:href="#DejaVuSans-30"/>
       <use x="254.492188" xlink:href="#DejaVuSans-30"/>
      </g>
     </g>
    </g>
    <g id="xtick_7">
     <g id="line2d_7">
      <g>
       <use style="stroke:#000000;stroke-width:0.8;" x="324.664903" xlink:href="#m76ba1948d6" y="307.584"/>
      </g>
     </g>
     <g id="text_7">
      <!-- 30000 -->
      <defs>
       <path d="M 40.578125 39.3125 
Q 47.65625 37.796875 51.625 33 
Q 55.609375 28.21875 55.609375 21.1875 
Q 55.609375 10.40625 48.1875 4.484375 
Q 40.765625 -1.421875 27.09375 -1.421875 
Q 22.515625 -1.421875 17.65625 -0.515625 
Q 12.796875 0.390625 7.625 2.203125 
L 7.625 11.71875 
Q 11.71875 9.328125 16.59375 8.109375 
Q 21.484375 6.890625 26.8125 6.890625 
Q 36.078125 6.890625 40.9375 10.546875 
Q 45.796875 14.203125 45.796875 21.1875 
Q 45.796875 27.640625 41.28125 31.265625 
Q 36.765625 34.90625 28.71875 34.90625 
L 20.21875 34.90625 
L 20.21875 43.015625 
L 29.109375 43.015625 
Q 36.375 43.015625 40.234375 45.921875 
Q 44.09375 48.828125 44.09375 54.296875 
Q 44.09375 59.90625 40.109375 62.90625 
Q 36.140625 65.921875 28.71875 65.921875 
Q 24.65625 65.921875 20.015625 65.03125 
Q 15.375 64.15625 9.8125 62.3125 
L 9.8125 71.09375 
Q 15.4375 72.65625 20.34375 73.4375 
Q 25.25 74.21875 29.59375 74.21875 
Q 40.828125 74.21875 47.359375 69.109375 
Q 53.90625 64.015625 53.90625 55.328125 
Q 53.90625 49.265625 50.4375 45.09375 
Q 46.96875 40.921875 40.578125 39.3125 
z
" id="DejaVuSans-33"/>
      </defs>
      <g transform="translate(308.758653 322.182437)scale(0.1 -0.1)">
       <use xlink:href="#DejaVuSans-33"/>
       <use x="63.623047" xlink:href="#DejaVuSans-30"/>
       <use x="127.246094" xlink:href="#DejaVuSans-30"/>
       <use x="190.869141" xlink:href="#DejaVuSans-30"/>
       <use x="254.492188" xlink:href="#DejaVuSans-30"/>
      </g>
     </g>
    </g>
    <g id="xtick_8">
     <g id="line2d_8">
      <g>
       <use style="stroke:#000000;stroke-width:0.8;" x="366.471659" xlink:href="#m76ba1948d6" y="307.584"/>
      </g>
     </g>
     <g id="text_8">
      <!-- 35000 -->
      <g transform="translate(350.565409 322.182437)scale(0.1 -0.1)">
       <use xlink:href="#DejaVuSans-33"/>
       <use x="63.623047" xlink:href="#DejaVuSans-35"/>
       <use x="127.246094" xlink:href="#DejaVuSans-30"/>
       <use x="190.869141" xlink:href="#DejaVuSans-30"/>
       <use x="254.492188" xlink:href="#DejaVuSans-30"/>
      </g>
     </g>
    </g>
    <g id="xtick_9">
     <g id="line2d_9">
      <g>
       <use style="stroke:#000000;stroke-width:0.8;" x="408.278415" xlink:href="#m76ba1948d6" y="307.584"/>
      </g>
     </g>
     <g id="text_9">
      <!-- 40000 -->
      <defs>
       <path d="M 37.796875 64.3125 
L 12.890625 25.390625 
L 37.796875 25.390625 
z
M 35.203125 72.90625 
L 47.609375 72.90625 
L 47.609375 25.390625 
L 58.015625 25.390625 
L 58.015625 17.1875 
L 47.609375 17.1875 
L 47.609375 0 
L 37.796875 0 
L 37.796875 17.1875 
L 4.890625 17.1875 
L 4.890625 26.703125 
z
" id="DejaVuSans-34"/>
      </defs>
      <g transform="translate(392.372165 322.182437)scale(0.1 -0.1)">
       <use xlink:href="#DejaVuSans-34"/>
       <use x="63.623047" xlink:href="#DejaVuSans-30"/>
       <use x="127.246094" xlink:href="#DejaVuSans-30"/>
       <use x="190.869141" xlink:href="#DejaVuSans-30"/>
       <use x="254.492188" xlink:href="#DejaVuSans-30"/>
      </g>
     </g>
    </g>
    <g id="text_10">
     <!-- Genome -->
     <defs>
      <path d="M 59.515625 10.40625 
L 59.515625 29.984375 
L 43.40625 29.984375 
L 43.40625 38.09375 
L 69.28125 38.09375 
L 69.28125 6.78125 
Q 63.578125 2.734375 56.6875 0.65625 
Q 49.8125 -1.421875 42 -1.421875 
Q 24.90625 -1.421875 15.25 8.5625 
Q 5.609375 18.5625 5.609375 36.375 
Q 5.609375 54.25 15.25 64.234375 
Q 24.90625 74.21875 42 74.21875 
Q 49.125 74.21875 55.546875 72.453125 
Q 61.96875 70.703125 67.390625 67.28125 
L 67.390625 56.78125 
Q 61.921875 61.421875 55.765625 63.765625 
Q 49.609375 66.109375 42.828125 66.109375 
Q 29.4375 66.109375 22.71875 58.640625 
Q 16.015625 51.171875 16.015625 36.375 
Q 16.015625 21.625 22.71875 14.15625 
Q 29.4375 6.6875 42.828125 6.6875 
Q 48.046875 6.6875 52.140625 7.59375 
Q 56.25 8.5 59.515625 10.40625 
z
" id="DejaVuSans-47"/>
      <path d="M 56.203125 29.59375 
L 56.203125 25.203125 
L 14.890625 25.203125 
Q 15.484375 15.921875 20.484375 11.0625 
Q 25.484375 6.203125 34.421875 6.203125 
Q 39.59375 6.203125 44.453125 7.46875 
Q 49.3125 8.734375 54.109375 11.28125 
L 54.109375 2.78125 
Q 49.265625 0.734375 44.1875 -0.34375 
Q 39.109375 -1.421875 33.890625 -1.421875 
Q 20.796875 -1.421875 13.15625 6.1875 
Q 5.515625 13.8125 5.515625 26.8125 
Q 5.515625 40.234375 12.765625 48.109375 
Q 20.015625 56 32.328125 56 
Q 43.359375 56 49.78125 48.890625 
Q 56.203125 41.796875 56.203125 29.59375 
z
M 47.21875 32.234375 
Q 47.125 39.59375 43.09375 43.984375 
Q 39.0625 48.390625 32.421875 48.390625 
Q 24.90625 48.390625 20.390625 44.140625 
Q 15.875 39.890625 15.1875 32.171875 
z
" id="DejaVuSans-65"/>
      <path d="M 54.890625 33.015625 
L 54.890625 0 
L 45.90625 0 
L 45.90625 32.71875 
Q 45.90625 40.484375 42.875 44.328125 
Q 39.84375 48.1875 33.796875 48.1875 
Q 26.515625 48.1875 22.3125 43.546875 
Q 18.109375 38.921875 18.109375 30.90625 
L 18.109375 0 
L 9.078125 0 
L 9.078125 54.6875 
L 18.109375 54.6875 
L 18.109375 46.1875 
Q 21.34375 51.125 25.703125 53.5625 
Q 30.078125 56 35.796875 56 
Q 45.21875 56 50.046875 50.171875 
Q 54.890625 44.34375 54.890625 33.015625 
z
" id="DejaVuSans-6e"/>
      <path d="M 30.609375 48.390625 
Q 23.390625 48.390625 19.1875 42.75 
Q 14.984375 37.109375 14.984375 27.296875 
Q 14.984375 17.484375 19.15625 11.84375 
Q 23.34375 6.203125 30.609375 6.203125 
Q 37.796875 6.203125 41.984375 11.859375 
Q 46.1875 17.53125 46.1875 27.296875 
Q 46.1875 37.015625 41.984375 42.703125 
Q 37.796875 48.390625 30.609375 48.390625 
z
M 30.609375 56 
Q 42.328125 56 49.015625 48.375 
Q 55.71875 40.765625 55.71875 27.296875 
Q 55.71875 13.875 49.015625 6.21875 
Q 42.328125 -1.421875 30.609375 -1.421875 
Q 18.84375 -1.421875 12.171875 6.21875 
Q 5.515625 13.875 5.515625 27.296875 
Q 5.515625 40.765625 12.171875 48.375 
Q 18.84375 56 30.609375 56 
z
" id="DejaVuSans-6f"/>
      <path d="M 52 44.1875 
Q 55.375 50.25 60.0625 53.125 
Q 64.75 56 71.09375 56 
Q 79.640625 56 84.28125 50.015625 
Q 88.921875 44.046875 88.921875 33.015625 
L 88.921875 0 
L 79.890625 0 
L 79.890625 32.71875 
Q 79.890625 40.578125 77.09375 44.375 
Q 74.3125 48.1875 68.609375 48.1875 
Q 61.625 48.1875 57.5625 43.546875 
Q 53.515625 38.921875 53.515625 30.90625 
L 53.515625 0 
L 44.484375 0 
L 44.484375 32.71875 
Q 44.484375 40.625 41.703125 44.40625 
Q 38.921875 48.1875 33.109375 48.1875 
Q 26.21875 48.1875 22.15625 43.53125 
Q 18.109375 38.875 18.109375 30.90625 
L 18.109375 0 
L 9.078125 0 
L 9.078125 54.6875 
L 18.109375 54.6875 
L 18.109375 46.1875 
Q 21.1875 51.21875 25.484375 53.609375 
Q 29.78125 56 35.6875 56 
Q 41.65625 56 45.828125 52.96875 
Q 50 49.953125 52 44.1875 
z
" id="DejaVuSans-6d"/>
     </defs>
     <g transform="translate(215.034219 335.860562)scale(0.1 -0.1)">
      <use xlink:href="#DejaVuSans-47"/>
      <use x="77.490234" xlink:href="#DejaVuSans-65"/>
      <use x="139.013672" xlink:href="#DejaVuSans-6e"/>
      <use x="202.392578" xlink:href="#DejaVuSans-6f"/>
      <use x="263.574219" xlink:href="#DejaVuSans-6d"/>
      <use x="360.986328" xlink:href="#DejaVuSans-65"/>
     </g>
    </g>
   </g>
   <g id="matplotlib.axis_2">
    <g id="ytick_1">
     <g id="line2d_10">
      <defs>
       <path d="M 0 0 
L -3.5 0 
" id="mce2c163c54" style="stroke:#000000;stroke-width:0.8;"/>
      </defs>
      <g>
       <use style="stroke:#000000;stroke-width:0.8;" x="57.6" xlink:href="#mce2c163c54" y="295.488"/>
      </g>
     </g>
     <g id="text_11">
      <!-- 0 -->
      <g transform="translate(44.2375 299.287219)scale(0.1 -0.1)">
       <use xlink:href="#DejaVuSans-30"/>
      </g>
     </g>
    </g>
    <g id="ytick_2">
     <g id="line2d_11">
      <g>
       <use style="stroke:#000000;stroke-width:0.8;" x="57.6" xlink:href="#mce2c163c54" y="287.684129"/>
      </g>
     </g>
     <g id="text_12">
      <!-- 2 -->
      <g transform="translate(44.2375 291.483348)scale(0.1 -0.1)">
       <use xlink:href="#DejaVuSans-32"/>
      </g>
     </g>
    </g>
    <g id="ytick_3">
     <g id="line2d_12">
      <g>
       <use style="stroke:#000000;stroke-width:0.8;" x="57.6" xlink:href="#mce2c163c54" y="279.880258"/>
      </g>
     </g>
     <g id="text_13">
      <!-- 3 -->
      <g transform="translate(44.2375 283.679477)scale(0.1 -0.1)">
       <use xlink:href="#DejaVuSans-33"/>
      </g>
     </g>
    </g>
    <g id="ytick_4">
     <g id="line2d_13">
      <g>
       <use style="stroke:#000000;stroke-width:0.8;" x="57.6" xlink:href="#mce2c163c54" y="272.076387"/>
      </g>
     </g>
     <g id="text_14">
      <!-- 5 -->
      <g transform="translate(44.2375 275.875606)scale(0.1 -0.1)">
       <use xlink:href="#DejaVuSans-35"/>
      </g>
     </g>
    </g>
    <g id="ytick_5">
     <g id="line2d_14">
      <g>
       <use style="stroke:#000000;stroke-width:0.8;" x="57.6" xlink:href="#mce2c163c54" y="264.272516"/>
      </g>
     </g>
     <g id="text_15">
      <!-- 6 -->
      <defs>
       <path d="M 33.015625 40.375 
Q 26.375 40.375 22.484375 35.828125 
Q 18.609375 31.296875 18.609375 23.390625 
Q 18.609375 15.53125 22.484375 10.953125 
Q 26.375 6.390625 33.015625 6.390625 
Q 39.65625 6.390625 43.53125 10.953125 
Q 47.40625 15.53125 47.40625 23.390625 
Q 47.40625 31.296875 43.53125 35.828125 
Q 39.65625 40.375 33.015625 40.375 
z
M 52.59375 71.296875 
L 52.59375 62.3125 
Q 48.875 64.0625 45.09375 64.984375 
Q 41.3125 65.921875 37.59375 65.921875 
Q 27.828125 65.921875 22.671875 59.328125 
Q 17.53125 52.734375 16.796875 39.40625 
Q 19.671875 43.65625 24.015625 45.921875 
Q 28.375 48.1875 33.59375 48.1875 
Q 44.578125 48.1875 50.953125 41.515625 
Q 57.328125 34.859375 57.328125 23.390625 
Q 57.328125 12.15625 50.6875 5.359375 
Q 44.046875 -1.421875 33.015625 -1.421875 
Q 20.359375 -1.421875 13.671875 8.265625 
Q 6.984375 17.96875 6.984375 36.375 
Q 6.984375 53.65625 15.1875 63.9375 
Q 23.390625 74.21875 37.203125 74.21875 
Q 40.921875 74.21875 44.703125 73.484375 
Q 48.484375 72.75 52.59375 71.296875 
z
" id="DejaVuSans-36"/>
      </defs>
      <g transform="translate(44.2375 268.071735)scale(0.1 -0.1)">
       <use xlink:href="#DejaVuSans-36"/>
      </g>
     </g>
    </g>
    <g id="ytick_6">
     <g id="line2d_15">
      <g>
       <use style="stroke:#000000;stroke-width:0.8;" x="57.6" xlink:href="#mce2c163c54" y="256.468645"/>
      </g>
     </g>
     <g id="text_16">
      <!-- 7 -->
      <defs>
       <path d="M 8.203125 72.90625 
L 55.078125 72.90625 
L 55.078125 68.703125 
L 28.609375 0 
L 18.3125 0 
L 43.21875 64.59375 
L 8.203125 64.59375 
z
" id="DejaVuSans-37"/>
      </defs>
      <g transform="translate(44.2375 260.267864)scale(0.1 -0.1)">
       <use xlink:href="#DejaVuSans-37"/>
      </g>
     </g>
    </g>
    <g id="ytick_7">
     <g id="line2d_16">
      <g>
       <use style="stroke:#000000;stroke-width:0.8;" x="57.6" xlink:href="#mce2c163c54" y="248.664774"/>
      </g>
     </g>
     <g id="text_17">
      <!-- 8 -->
      <defs>
       <path d="M 31.78125 34.625 
Q 24.75 34.625 20.71875 30.859375 
Q 16.703125 27.09375 16.703125 20.515625 
Q 16.703125 13.921875 20.71875 10.15625 
Q 24.75 6.390625 31.78125 6.390625 
Q 38.8125 6.390625 42.859375 10.171875 
Q 46.921875 13.96875 46.921875 20.515625 
Q 46.921875 27.09375 42.890625 30.859375 
Q 38.875 34.625 31.78125 34.625 
z
M 21.921875 38.8125 
Q 15.578125 40.375 12.03125 44.71875 
Q 8.5 49.078125 8.5 55.328125 
Q 8.5 64.0625 14.71875 69.140625 
Q 20.953125 74.21875 31.78125 74.21875 
Q 42.671875 74.21875 48.875 69.140625 
Q 55.078125 64.0625 55.078125 55.328125 
Q 55.078125 49.078125 51.53125 44.71875 
Q 48 40.375 41.703125 38.8125 
Q 48.828125 37.15625 52.796875 32.3125 
Q 56.78125 27.484375 56.78125 20.515625 
Q 56.78125 9.90625 50.3125 4.234375 
Q 43.84375 -1.421875 31.78125 -1.421875 
Q 19.734375 -1.421875 13.25 4.234375 
Q 6.78125 9.90625 6.78125 20.515625 
Q 6.78125 27.484375 10.78125 32.3125 
Q 14.796875 37.15625 21.921875 38.8125 
z
M 18.3125 54.390625 
Q 18.3125 48.734375 21.84375 45.5625 
Q 25.390625 42.390625 31.78125 42.390625 
Q 38.140625 42.390625 41.71875 45.5625 
Q 45.3125 48.734375 45.3125 54.390625 
Q 45.3125 60.0625 41.71875 63.234375 
Q 38.140625 66.40625 31.78125 66.40625 
Q 25.390625 66.40625 21.84375 63.234375 
Q 18.3125 60.0625 18.3125 54.390625 
z
" id="DejaVuSans-38"/>
      </defs>
      <g transform="translate(44.2375 252.463993)scale(0.1 -0.1)">
       <use xlink:href="#DejaVuSans-38"/>
      </g>
     </g>
    </g>
    <g id="ytick_8">
     <g id="line2d_17">
      <g>
       <use style="stroke:#000000;stroke-width:0.8;" x="57.6" xlink:href="#mce2c163c54" y="240.860903"/>
      </g>
     </g>
     <g id="text_18">
      <!-- 10 -->
      <g transform="translate(37.875 244.660122)scale(0.1 -0.1)">
       <use xlink:href="#DejaVuSans-31"/>
       <use x="63.623047" xlink:href="#DejaVuSans-30"/>
      </g>
     </g>
    </g>
    <g id="ytick_9">
     <g id="line2d_18">
      <g>
       <use style="stroke:#000000;stroke-width:0.8;" x="57.6" xlink:href="#mce2c163c54" y="233.057032"/>
      </g>
     </g>
     <g id="text_19">
      <!-- 11 -->
      <g transform="translate(37.875 236.856251)scale(0.1 -0.1)">
       <use xlink:href="#DejaVuSans-31"/>
       <use x="63.623047" xlink:href="#DejaVuSans-31"/>
      </g>
     </g>
    </g>
    <g id="ytick_10">
     <g id="line2d_19">
      <g>
       <use style="stroke:#000000;stroke-width:0.8;" x="57.6" xlink:href="#mce2c163c54" y="225.253161"/>
      </g>
     </g>
     <g id="text_20">
      <!-- 13 -->
      <g transform="translate(37.875 229.05238)scale(0.1 -0.1)">
       <use xlink:href="#DejaVuSans-31"/>
       <use x="63.623047" xlink:href="#DejaVuSans-33"/>
      </g>
     </g>
    </g>
    <g id="ytick_11">
     <g id="line2d_20">
      <g>
       <use style="stroke:#000000;stroke-width:0.8;" x="57.6" xlink:href="#mce2c163c54" y="217.44929"/>
      </g>
     </g>
     <g id="text_21">
      <!-- 14 -->
      <g transform="translate(37.875 221.248509)scale(0.1 -0.1)">
       <use xlink:href="#DejaVuSans-31"/>
       <use x="63.623047" xlink:href="#DejaVuSans-34"/>
      </g>
     </g>
    </g>
    <g id="ytick_12">
     <g id="line2d_21">
      <g>
       <use style="stroke:#000000;stroke-width:0.8;" x="57.6" xlink:href="#mce2c163c54" y="209.645419"/>
      </g>
     </g>
     <g id="text_22">
      <!-- 16 -->
      <g transform="translate(37.875 213.444638)scale(0.1 -0.1)">
       <use xlink:href="#DejaVuSans-31"/>
       <use x="63.623047" xlink:href="#DejaVuSans-36"/>
      </g>
     </g>
    </g>
    <g id="ytick_13">
     <g id="line2d_22">
      <g>
       <use style="stroke:#000000;stroke-width:0.8;" x="57.6" xlink:href="#mce2c163c54" y="201.841548"/>
      </g>
     </g>
     <g id="text_23">
      <!-- 17 -->
      <g transform="translate(37.875 205.640767)scale(0.1 -0.1)">
       <use xlink:href="#DejaVuSans-31"/>
       <use x="63.623047" xlink:href="#DejaVuSans-37"/>
      </g>
     </g>
    </g>
    <g id="ytick_14">
     <g id="line2d_23">
      <g>
       <use style="stroke:#000000;stroke-width:0.8;" x="57.6" xlink:href="#mce2c163c54" y="194.037677"/>
      </g>
     </g>
     <g id="text_24">
      <!-- 15 -->
      <g transform="translate(37.875 197.836896)scale(0.1 -0.1)">
       <use xlink:href="#DejaVuSans-31"/>
       <use x="63.623047" xlink:href="#DejaVuSans-35"/>
      </g>
     </g>
    </g>
    <g id="ytick_15">
     <g id="line2d_24">
      <g>
       <use style="stroke:#000000;stroke-width:0.8;" x="57.6" xlink:href="#mce2c163c54" y="186.233806"/>
      </g>
     </g>
     <g id="text_25">
      <!-- 12 -->
      <g transform="translate(37.875 190.033025)scale(0.1 -0.1)">
       <use xlink:href="#DejaVuSans-31"/>
       <use x="63.623047" xlink:href="#DejaVuSans-32"/>
      </g>
     </g>
    </g>
    <g id="ytick_16">
     <g id="line2d_25">
      <g>
       <use style="stroke:#000000;stroke-width:0.8;" x="57.6" xlink:href="#mce2c163c54" y="178.429935"/>
      </g>
     </g>
     <g id="text_26">
      <!-- 4 -->
      <g transform="translate(44.2375 182.229154)scale(0.1 -0.1)">
       <use xlink:href="#DejaVuSans-34"/>
      </g>
     </g>
    </g>
    <g id="ytick_17">
     <g id="line2d_26">
      <g>
       <use style="stroke:#000000;stroke-width:0.8;" x="57.6" xlink:href="#mce2c163c54" y="170.626065"/>
      </g>
     </g>
     <g id="text_27">
      <!-- 1 -->
      <g transform="translate(44.2375 174.425283)scale(0.1 -0.1)">
       <use xlink:href="#DejaVuSans-31"/>
      </g>
     </g>
    </g>
    <g id="ytick_18">
     <g id="line2d_27">
      <g>
       <use style="stroke:#000000;stroke-width:0.8;" x="57.6" xlink:href="#mce2c163c54" y="162.822194"/>
      </g>
     </g>
     <g id="text_28">
      <!-- 9 -->
      <defs>
       <path d="M 10.984375 1.515625 
L 10.984375 10.5 
Q 14.703125 8.734375 18.5 7.8125 
Q 22.3125 6.890625 25.984375 6.890625 
Q 35.75 6.890625 40.890625 13.453125 
Q 46.046875 20.015625 46.78125 33.40625 
Q 43.953125 29.203125 39.59375 26.953125 
Q 35.25 24.703125 29.984375 24.703125 
Q 19.046875 24.703125 12.671875 31.3125 
Q 6.296875 37.9375 6.296875 49.421875 
Q 6.296875 60.640625 12.9375 67.421875 
Q 19.578125 74.21875 30.609375 74.21875 
Q 43.265625 74.21875 49.921875 64.515625 
Q 56.59375 54.828125 56.59375 36.375 
Q 56.59375 19.140625 48.40625 8.859375 
Q 40.234375 -1.421875 26.421875 -1.421875 
Q 22.703125 -1.421875 18.890625 -0.6875 
Q 15.09375 0.046875 10.984375 1.515625 
z
M 30.609375 32.421875 
Q 37.25 32.421875 41.125 36.953125 
Q 45.015625 41.5 45.015625 49.421875 
Q 45.015625 57.28125 41.125 61.84375 
Q 37.25 66.40625 30.609375 66.40625 
Q 23.96875 66.40625 20.09375 61.84375 
Q 16.21875 57.28125 16.21875 49.421875 
Q 16.21875 41.5 20.09375 36.953125 
Q 23.96875 32.421875 30.609375 32.421875 
z
" id="DejaVuSans-39"/>
      </defs>
      <g transform="translate(44.2375 166.621412)scale(0.1 -0.1)">
       <use xlink:href="#DejaVuSans-39"/>
      </g>
     </g>
    </g>
    <g id="ytick_19">
     <g id="line2d_28">
      <g>
       <use style="stroke:#000000;stroke-width:0.8;" x="57.6" xlink:href="#mce2c163c54" y="155.018323"/>
      </g>
     </g>
     <g id="text_29">
      <!-- 19 -->
      <g transform="translate(37.875 158.817541)scale(0.1 -0.1)">
       <use xlink:href="#DejaVuSans-31"/>
       <use x="63.623047" xlink:href="#DejaVuSans-39"/>
      </g>
     </g>
    </g>
    <g id="ytick_20">
     <g id="line2d_29">
      <g>
       <use style="stroke:#000000;stroke-width:0.8;" x="57.6" xlink:href="#mce2c163c54" y="147.214452"/>
      </g>
     </g>
     <g id="text_30">
      <!-- 18 -->
      <g transform="translate(37.875 151.01367)scale(0.1 -0.1)">
       <use xlink:href="#DejaVuSans-31"/>
       <use x="63.623047" xlink:href="#DejaVuSans-38"/>
      </g>
     </g>
    </g>
    <g id="ytick_21">
     <g id="line2d_30">
      <g>
       <use style="stroke:#000000;stroke-width:0.8;" x="57.6" xlink:href="#mce2c163c54" y="139.410581"/>
      </g>
     </g>
     <g id="text_31">
      <!-- 20 -->
      <g transform="translate(37.875 143.209799)scale(0.1 -0.1)">
       <use xlink:href="#DejaVuSans-32"/>
       <use x="63.623047" xlink:href="#DejaVuSans-30"/>
      </g>
     </g>
    </g>
    <g id="ytick_22">
     <g id="line2d_31">
      <g>
       <use style="stroke:#000000;stroke-width:0.8;" x="57.6" xlink:href="#mce2c163c54" y="131.60671"/>
      </g>
     </g>
     <g id="text_32">
      <!-- 21 -->
      <g transform="translate(37.875 135.405928)scale(0.1 -0.1)">
       <use xlink:href="#DejaVuSans-32"/>
       <use x="63.623047" xlink:href="#DejaVuSans-31"/>
      </g>
     </g>
    </g>
    <g id="ytick_23">
     <g id="line2d_32">
      <g>
       <use style="stroke:#000000;stroke-width:0.8;" x="57.6" xlink:href="#mce2c163c54" y="123.802839"/>
      </g>
     </g>
     <g id="text_33">
      <!-- 23 -->
      <g transform="translate(37.875 127.602057)scale(0.1 -0.1)">
       <use xlink:href="#DejaVuSans-32"/>
       <use x="63.623047" xlink:href="#DejaVuSans-33"/>
      </g>
     </g>
    </g>
    <g id="ytick_24">
     <g id="line2d_33">
      <g>
       <use style="stroke:#000000;stroke-width:0.8;" x="57.6" xlink:href="#mce2c163c54" y="115.998968"/>
      </g>
     </g>
     <g id="text_34">
      <!-- 22 -->
      <g transform="translate(37.875 119.798186)scale(0.1 -0.1)">
       <use xlink:href="#DejaVuSans-32"/>
       <use x="63.623047" xlink:href="#DejaVuSans-32"/>
      </g>
     </g>
    </g>
    <g id="ytick_25">
     <g id="line2d_34">
      <g>
       <use style="stroke:#000000;stroke-width:0.8;" x="57.6" xlink:href="#mce2c163c54" y="108.195097"/>
      </g>
     </g>
     <g id="text_35">
      <!-- 24 -->
      <g transform="translate(37.875 111.994316)scale(0.1 -0.1)">
       <use xlink:href="#DejaVuSans-32"/>
       <use x="63.623047" xlink:href="#DejaVuSans-34"/>
      </g>
     </g>
    </g>
    <g id="ytick_26">
     <g id="line2d_35">
      <g>
       <use style="stroke:#000000;stroke-width:0.8;" x="57.6" xlink:href="#mce2c163c54" y="100.391226"/>
      </g>
     </g>
     <g id="text_36">
      <!-- 25 -->
      <g transform="translate(37.875 104.190445)scale(0.1 -0.1)">
       <use xlink:href="#DejaVuSans-32"/>
       <use x="63.623047" xlink:href="#DejaVuSans-35"/>
      </g>
     </g>
    </g>
    <g id="ytick_27">
     <g id="line2d_36">
      <g>
       <use style="stroke:#000000;stroke-width:0.8;" x="57.6" xlink:href="#mce2c163c54" y="92.587355"/>
      </g>
     </g>
     <g id="text_37">
      <!-- 26 -->
      <g transform="translate(37.875 96.386574)scale(0.1 -0.1)">
       <use xlink:href="#DejaVuSans-32"/>
       <use x="63.623047" xlink:href="#DejaVuSans-36"/>
      </g>
     </g>
    </g>
    <g id="ytick_28">
     <g id="line2d_37">
      <g>
       <use style="stroke:#000000;stroke-width:0.8;" x="57.6" xlink:href="#mce2c163c54" y="84.783484"/>
      </g>
     </g>
     <g id="text_38">
      <!-- 27 -->
      <g transform="translate(37.875 88.582703)scale(0.1 -0.1)">
       <use xlink:href="#DejaVuSans-32"/>
       <use x="63.623047" xlink:href="#DejaVuSans-37"/>
      </g>
     </g>
    </g>
    <g id="ytick_29">
     <g id="line2d_38">
      <g>
       <use style="stroke:#000000;stroke-width:0.8;" x="57.6" xlink:href="#mce2c163c54" y="76.979613"/>
      </g>
     </g>
     <g id="text_39">
      <!-- 28 -->
      <g transform="translate(37.875 80.778832)scale(0.1 -0.1)">
       <use xlink:href="#DejaVuSans-32"/>
       <use x="63.623047" xlink:href="#DejaVuSans-38"/>
      </g>
     </g>
    </g>
    <g id="ytick_30">
     <g id="line2d_39">
      <g>
       <use style="stroke:#000000;stroke-width:0.8;" x="57.6" xlink:href="#mce2c163c54" y="69.175742"/>
      </g>
     </g>
     <g id="text_40">
      <!-- 29 -->
      <g transform="translate(37.875 72.974961)scale(0.1 -0.1)">
       <use xlink:href="#DejaVuSans-32"/>
       <use x="63.623047" xlink:href="#DejaVuSans-39"/>
      </g>
     </g>
    </g>
    <g id="ytick_31">
     <g id="line2d_40">
      <g>
       <use style="stroke:#000000;stroke-width:0.8;" x="57.6" xlink:href="#mce2c163c54" y="61.371871"/>
      </g>
     </g>
     <g id="text_41">
      <!-- 30 -->
      <g transform="translate(37.875 65.17109)scale(0.1 -0.1)">
       <use xlink:href="#DejaVuSans-33"/>
       <use x="63.623047" xlink:href="#DejaVuSans-30"/>
      </g>
     </g>
    </g>
    <g id="ytick_32">
     <g id="line2d_41">
      <g>
       <use style="stroke:#000000;stroke-width:0.8;" x="57.6" xlink:href="#mce2c163c54" y="53.568"/>
      </g>
     </g>
     <g id="text_42">
      <!-- 31 -->
      <g transform="translate(37.875 57.367219)scale(0.1 -0.1)">
       <use xlink:href="#DejaVuSans-33"/>
       <use x="63.623047" xlink:href="#DejaVuSans-31"/>
      </g>
     </g>
    </g>
    <g id="text_43">
     <!-- Read Depth -->
     <defs>
      <path d="M 44.390625 34.1875 
Q 47.5625 33.109375 50.5625 29.59375 
Q 53.5625 26.078125 56.59375 19.921875 
L 66.609375 0 
L 56 0 
L 46.6875 18.703125 
Q 43.0625 26.03125 39.671875 28.421875 
Q 36.28125 30.8125 30.421875 30.8125 
L 19.671875 30.8125 
L 19.671875 0 
L 9.8125 0 
L 9.8125 72.90625 
L 32.078125 72.90625 
Q 44.578125 72.90625 50.734375 67.671875 
Q 56.890625 62.453125 56.890625 51.90625 
Q 56.890625 45.015625 53.6875 40.46875 
Q 50.484375 35.9375 44.390625 34.1875 
z
M 19.671875 64.796875 
L 19.671875 38.921875 
L 32.078125 38.921875 
Q 39.203125 38.921875 42.84375 42.21875 
Q 46.484375 45.515625 46.484375 51.90625 
Q 46.484375 58.296875 42.84375 61.546875 
Q 39.203125 64.796875 32.078125 64.796875 
z
" id="DejaVuSans-52"/>
      <path d="M 34.28125 27.484375 
Q 23.390625 27.484375 19.1875 25 
Q 14.984375 22.515625 14.984375 16.5 
Q 14.984375 11.71875 18.140625 8.90625 
Q 21.296875 6.109375 26.703125 6.109375 
Q 34.1875 6.109375 38.703125 11.40625 
Q 43.21875 16.703125 43.21875 25.484375 
L 43.21875 27.484375 
z
M 52.203125 31.203125 
L 52.203125 0 
L 43.21875 0 
L 43.21875 8.296875 
Q 40.140625 3.328125 35.546875 0.953125 
Q 30.953125 -1.421875 24.3125 -1.421875 
Q 15.921875 -1.421875 10.953125 3.296875 
Q 6 8.015625 6 15.921875 
Q 6 25.140625 12.171875 29.828125 
Q 18.359375 34.515625 30.609375 34.515625 
L 43.21875 34.515625 
L 43.21875 35.40625 
Q 43.21875 41.609375 39.140625 45 
Q 35.0625 48.390625 27.6875 48.390625 
Q 23 48.390625 18.546875 47.265625 
Q 14.109375 46.140625 10.015625 43.890625 
L 10.015625 52.203125 
Q 14.9375 54.109375 19.578125 55.046875 
Q 24.21875 56 28.609375 56 
Q 40.484375 56 46.34375 49.84375 
Q 52.203125 43.703125 52.203125 31.203125 
z
" id="DejaVuSans-61"/>
      <path d="M 45.40625 46.390625 
L 45.40625 75.984375 
L 54.390625 75.984375 
L 54.390625 0 
L 45.40625 0 
L 45.40625 8.203125 
Q 42.578125 3.328125 38.25 0.953125 
Q 33.9375 -1.421875 27.875 -1.421875 
Q 17.96875 -1.421875 11.734375 6.484375 
Q 5.515625 14.40625 5.515625 27.296875 
Q 5.515625 40.1875 11.734375 48.09375 
Q 17.96875 56 27.875 56 
Q 33.9375 56 38.25 53.625 
Q 42.578125 51.265625 45.40625 46.390625 
z
M 14.796875 27.296875 
Q 14.796875 17.390625 18.875 11.75 
Q 22.953125 6.109375 30.078125 6.109375 
Q 37.203125 6.109375 41.296875 11.75 
Q 45.40625 17.390625 45.40625 27.296875 
Q 45.40625 37.203125 41.296875 42.84375 
Q 37.203125 48.484375 30.078125 48.484375 
Q 22.953125 48.484375 18.875 42.84375 
Q 14.796875 37.203125 14.796875 27.296875 
z
" id="DejaVuSans-64"/>
      <path id="DejaVuSans-20"/>
      <path d="M 19.671875 64.796875 
L 19.671875 8.109375 
L 31.59375 8.109375 
Q 46.6875 8.109375 53.6875 14.9375 
Q 60.6875 21.78125 60.6875 36.53125 
Q 60.6875 51.171875 53.6875 57.984375 
Q 46.6875 64.796875 31.59375 64.796875 
z
M 9.8125 72.90625 
L 30.078125 72.90625 
Q 51.265625 72.90625 61.171875 64.09375 
Q 71.09375 55.28125 71.09375 36.53125 
Q 71.09375 17.671875 61.125 8.828125 
Q 51.171875 0 30.078125 0 
L 9.8125 0 
z
" id="DejaVuSans-44"/>
      <path d="M 18.109375 8.203125 
L 18.109375 -20.796875 
L 9.078125 -20.796875 
L 9.078125 54.6875 
L 18.109375 54.6875 
L 18.109375 46.390625 
Q 20.953125 51.265625 25.265625 53.625 
Q 29.59375 56 35.59375 56 
Q 45.5625 56 51.78125 48.09375 
Q 58.015625 40.1875 58.015625 27.296875 
Q 58.015625 14.40625 51.78125 6.484375 
Q 45.5625 -1.421875 35.59375 -1.421875 
Q 29.59375 -1.421875 25.265625 0.953125 
Q 20.953125 3.328125 18.109375 8.203125 
z
M 48.6875 27.296875 
Q 48.6875 37.203125 44.609375 42.84375 
Q 40.53125 48.484375 33.40625 48.484375 
Q 26.265625 48.484375 22.1875 42.84375 
Q 18.109375 37.203125 18.109375 27.296875 
Q 18.109375 17.390625 22.1875 11.75 
Q 26.265625 6.109375 33.40625 6.109375 
Q 40.53125 6.109375 44.609375 11.75 
Q 48.6875 17.390625 48.6875 27.296875 
z
" id="DejaVuSans-70"/>
      <path d="M 18.3125 70.21875 
L 18.3125 54.6875 
L 36.8125 54.6875 
L 36.8125 47.703125 
L 18.3125 47.703125 
L 18.3125 18.015625 
Q 18.3125 11.328125 20.140625 9.421875 
Q 21.96875 7.515625 27.59375 7.515625 
L 36.8125 7.515625 
L 36.8125 0 
L 27.59375 0 
Q 17.1875 0 13.234375 3.875 
Q 9.28125 7.765625 9.28125 18.015625 
L 9.28125 47.703125 
L 2.6875 47.703125 
L 2.6875 54.6875 
L 9.28125 54.6875 
L 9.28125 70.21875 
z
" id="DejaVuSans-74"/>
      <path d="M 54.890625 33.015625 
L 54.890625 0 
L 45.90625 0 
L 45.90625 32.71875 
Q 45.90625 40.484375 42.875 44.328125 
Q 39.84375 48.1875 33.796875 48.1875 
Q 26.515625 48.1875 22.3125 43.546875 
Q 18.109375 38.921875 18.109375 30.90625 
L 18.109375 0 
L 9.078125 0 
L 9.078125 75.984375 
L 18.109375 75.984375 
L 18.109375 46.1875 
Q 21.34375 51.125 25.703125 53.5625 
Q 30.078125 56 35.796875 56 
Q 45.21875 56 50.046875 50.171875 
Q 54.890625 44.34375 54.890625 33.015625 
z
" id="DejaVuSans-68"/>
     </defs>
     <g transform="translate(31.795312 204.132688)rotate(-90)scale(0.1 -0.1)">
      <use xlink:href="#DejaVuSans-52"/>
      <use x="69.419922" xlink:href="#DejaVuSans-65"/>
      <use x="130.943359" xlink:href="#DejaVuSans-61"/>
      <use x="192.222656" xlink:href="#DejaVuSans-64"/>
      <use x="255.699219" xlink:href="#DejaVuSans-20"/>
      <use x="287.486328" xlink:href="#DejaVuSans-44"/>
      <use x="364.488281" xlink:href="#DejaVuSans-65"/>
      <use x="426.011719" xlink:href="#DejaVuSans-70"/>
      <use x="489.488281" xlink:href="#DejaVuSans-74"/>
      <use x="528.697266" xlink:href="#DejaVuSans-68"/>
     </g>
    </g>
   </g>
   <g id="line2d_42">
    <path clip-path="url(#p544ebb27bd)" d="M 73.832727 295.488 
L 77.837815 295.488 
L 77.954873 287.684129 
L 78.381302 287.684129 
L 78.498361 295.488 
L 79.518446 295.488 
L 79.635505 287.684129 
L 79.735841 287.684129 
L 79.819455 272.076387 
L 79.8529 279.880258 
L 79.944875 279.880258 
L 80.078657 256.468645 
L 80.112102 256.468645 
L 80.279329 201.841548 
L 80.371304 201.841548 
L 80.496724 217.44929 
L 80.513447 217.44929 
L 80.588699 225.253161 
L 80.630506 186.233806 
L 80.689035 186.233806 
L 80.814456 272.076387 
L 80.83954 287.684129 
L 80.931514 170.626065 
L 81.14891 170.626065 
L 81.265969 295.488 
L 81.550254 295.488 
L 81.575339 170.626065 
L 81.658952 287.684129 
L 81.667313 287.684129 
L 81.692397 295.488 
L 81.76765 279.880258 
L 81.934877 279.880258 
L 81.993406 178.429935 
L 82.043574 248.664774 
L 82.102104 248.664774 
L 82.219163 162.822194 
L 82.235885 162.822194 
L 82.32786 248.664774 
L 82.352944 240.860903 
L 82.444919 217.44929 
L 82.478364 225.253161 
L 82.51181 225.253161 
L 82.704121 147.214452 
L 82.745928 147.214452 
L 82.862987 201.841548 
L 82.963323 201.841548 
L 82.980046 194.037677 
L 83.113827 240.860903 
L 83.147273 240.860903 
L 83.189079 162.822194 
L 83.247609 264.272516 
L 83.264331 178.429935 
L 83.272693 178.429935 
L 83.306138 279.880258 
L 83.3145 170.626065 
L 83.38139 170.626065 
L 83.389752 170.626065 
L 83.506811 287.684129 
L 83.582063 287.684129 
L 83.699122 279.880258 
L 84.025214 279.880258 
L 84.092105 287.684129 
L 84.150635 295.488 
L 84.209164 170.626065 
L 84.317862 170.626065 
L 84.326223 295.488 
L 84.426559 170.626065 
L 84.434921 170.626065 
L 84.476727 279.880258 
L 84.543618 178.429935 
L 84.627232 178.429935 
L 84.735929 264.272516 
L 84.744291 256.468645 
L 84.819543 256.468645 
L 84.886434 272.076387 
L 85.003493 178.429935 
L 85.062022 178.429935 
L 85.179081 295.488 
L 103.498801 295.488 
L 103.61586 287.684129 
L 104.017205 287.684129 
L 104.117541 178.429935 
L 104.125903 272.076387 
L 104.134264 272.076387 
L 104.251323 279.880258 
L 104.268046 279.880258 
L 104.385105 178.429935 
L 104.585777 178.429935 
L 104.702836 279.880258 
L 104.711197 279.880258 
L 104.753004 178.429935 
L 104.819895 279.880258 
L 104.886786 279.880258 
L 105.003845 287.684129 
L 105.187794 287.684129 
L 105.304853 178.429935 
L 105.706198 178.429935 
L 105.823257 295.488 
L 106.985485 295.488 
L 107.102544 178.429935 
L 107.127628 178.429935 
L 107.135989 295.488 
L 107.236325 178.429935 
L 107.244687 178.429935 
L 107.269771 295.488 
L 107.361746 272.076387 
L 107.370107 272.076387 
L 107.487166 225.253161 
L 107.495527 225.253161 
L 107.629309 155.018323 
L 107.63767 194.037677 
L 107.662754 194.037677 
L 107.671116 209.645419 
L 107.771452 201.841548 
L 107.896872 201.841548 
L 107.938679 186.233806 
L 107.94704 240.860903 
L 107.963763 240.860903 
L 108.097545 240.860903 
L 108.181158 272.076387 
L 108.222965 264.272516 
L 108.289856 178.429935 
L 108.298217 287.684129 
L 108.331662 287.684129 
L 108.390192 287.684129 
L 108.448721 170.626065 
L 108.498889 225.253161 
L 108.515612 225.253161 
L 108.62431 194.037677 
L 108.641032 209.645419 
L 108.666116 209.645419 
L 108.783175 201.841548 
L 108.850066 201.841548 
L 108.866789 264.272516 
L 108.958764 186.233806 
L 109.075823 186.233806 
L 109.125991 287.684129 
L 109.134352 170.626065 
L 109.176159 170.626065 
L 109.192882 170.626065 
L 109.234688 295.488 
L 109.309941 279.880258 
L 109.318302 279.880258 
L 109.376831 178.429935 
L 109.426999 272.076387 
L 109.55242 272.076387 
L 109.669479 178.429935 
L 109.761453 178.429935 
L 109.878512 287.684129 
L 109.953765 287.684129 
L 110.012294 170.626065 
L 110.020655 295.488 
L 110.062462 295.488 
L 112.286582 295.488 
L 112.40364 178.429935 
L 112.520699 272.076387 
L 112.754817 272.076387 
L 112.779901 178.429935 
L 112.821708 295.488 
L 112.863515 295.488 
L 114.56923 295.488 
L 114.686289 170.626065 
L 115.204693 170.626065 
L 115.321752 295.488 
L 126.082811 295.488 
L 126.19987 170.626065 
L 126.718274 170.626065 
L 126.835333 295.488 
L 127.178148 295.488 
L 127.295207 170.626065 
L 127.821972 170.626065 
L 127.939031 295.488 
L 128.173149 295.488 
L 128.290208 170.626065 
L 128.842057 170.626065 
L 128.959116 295.488 
L 160.66536 295.488 
L 160.782419 178.429935 
L 160.958007 178.429935 
L 161.075066 170.626065 
L 161.150318 170.626065 
L 161.267377 295.488 
L 161.693806 295.488 
L 161.84431 178.429935 
L 161.852672 295.488 
L 161.953008 256.468645 
L 162.044983 256.468645 
L 162.162042 233.057032 
L 162.170403 233.057032 
L 162.220571 162.822194 
L 162.279101 233.057032 
L 162.387798 233.057032 
L 162.479773 162.822194 
L 162.488134 248.664774 
L 162.496496 248.664774 
L 162.513218 248.664774 
L 162.538302 256.468645 
L 162.621916 162.822194 
L 162.647 264.272516 
L 162.738975 264.272516 
L 162.814227 178.429935 
L 162.822588 272.076387 
L 162.847672 272.076387 
L 163.031622 272.076387 
L 163.148681 170.626065 
L 163.315908 170.626065 
L 163.432967 279.880258 
L 163.44969 279.880258 
L 163.541665 287.684129 
L 163.667085 186.233806 
L 163.717253 186.233806 
L 163.775782 225.253161 
L 163.825951 209.645419 
L 163.867757 209.645419 
L 163.926287 147.214452 
L 163.951371 225.253161 
L 163.959732 186.233806 
L 164.076791 240.860903 
L 164.202211 240.860903 
L 164.235657 233.057032 
L 164.310909 240.860903 
L 164.31927 240.860903 
L 164.3778 248.664774 
L 164.50322 162.822194 
L 164.578472 248.664774 
L 164.620279 240.860903 
L 164.670447 240.860903 
L 164.678808 162.822194 
L 164.779145 240.860903 
L 164.871119 240.860903 
L 164.988178 248.664774 
L 164.99654 248.664774 
L 165.046708 256.468645 
L 165.105237 248.664774 
L 165.172128 248.664774 
L 165.289187 272.076387 
L 165.330994 178.429935 
L 165.314271 279.880258 
L 165.397885 279.880258 
L 165.473137 279.880258 
L 165.540028 287.684129 
L 165.581834 279.880258 
L 165.690532 279.880258 
L 165.723977 287.684129 
L 165.799229 279.880258 
L 165.958095 279.880258 
L 166.075154 287.684129 
L 166.100238 287.684129 
L 166.217297 295.488 
L 166.325995 295.488 
L 166.334356 170.626065 
L 166.434692 279.880258 
L 166.551751 272.076387 
L 166.568474 272.076387 
L 166.685533 264.272516 
L 166.744062 264.272516 
L 166.752423 295.488 
L 166.85276 264.272516 
L 166.97818 264.272516 
L 167.036709 248.664774 
L 167.095239 272.076387 
L 167.212298 272.076387 
L 167.220659 248.664774 
L 167.320995 256.468645 
L 167.454777 256.468645 
L 167.496584 186.233806 
L 167.580197 225.253161 
L 167.59692 225.253161 
L 167.622004 186.233806 
L 167.680533 240.860903 
L 167.705618 233.057032 
L 167.84776 233.057032 
L 167.964819 162.822194 
L 168.098601 162.822194 
L 168.21566 287.684129 
L 168.232383 287.684129 
L 168.257467 170.626065 
L 168.349442 178.429935 
L 168.407971 264.272516 
L 168.4665 248.664774 
L 168.491585 248.664774 
L 168.608643 256.468645 
L 168.759148 256.468645 
L 168.77587 178.429935 
L 168.784232 264.272516 
L 168.867845 264.272516 
L 168.943097 264.272516 
L 168.993266 178.429935 
L 169.051795 279.880258 
L 169.068518 279.880258 
L 169.185577 272.076387 
L 169.202299 272.076387 
L 169.319358 256.468645 
L 169.39461 256.468645 
L 169.511669 272.076387 
L 169.536753 272.076387 
L 169.628728 256.468645 
L 169.653812 264.272516 
L 169.678896 264.272516 
L 169.812678 287.684129 
L 170.180577 287.684129 
L 170.205662 170.626065 
L 170.214023 295.488 
L 170.289275 295.488 
L 170.38125 295.488 
L 170.456502 170.626065 
L 170.489947 287.684129 
L 170.548477 287.684129 
L 170.665536 178.429935 
L 170.698981 178.429935 
L 170.81604 272.076387 
L 170.966544 272.076387 
L 171.083603 178.429935 
L 171.091965 178.429935 
L 171.117049 279.880258 
L 171.12541 170.626065 
L 171.200662 170.626065 
L 171.242469 170.626065 
L 171.275914 264.272516 
L 171.359528 256.468645 
L 171.459864 256.468645 
L 171.576923 248.664774 
L 171.719066 248.664774 
L 171.861209 279.880258 
L 171.86957 279.880258 
L 171.986629 272.076387 
L 172.095327 272.076387 
L 172.162218 178.429935 
L 172.204024 264.272516 
L 172.304361 264.272516 
L 172.505033 162.822194 
L 172.622092 272.076387 
L 172.67226 272.076387 
L 172.789319 279.880258 
L 172.923101 256.468645 
L 172.939823 256.468645 
L 173.015076 248.664774 
L 173.056882 264.272516 
L 173.307723 264.272516 
L 173.424782 178.429935 
L 173.541841 178.429935 
L 173.625454 170.626065 
L 173.6589 295.488 
L 174.110413 295.488 
L 174.227471 170.626065 
L 174.311085 170.626065 
L 174.428144 287.684129 
L 174.486673 287.684129 
L 174.603732 272.076387 
L 174.745875 272.076387 
L 174.862934 178.429935 
L 174.871296 178.429935 
L 174.988354 272.076387 
L 175.046884 272.076387 
L 175.113775 287.684129 
L 175.155581 279.880258 
L 175.180665 279.880258 
L 175.297724 178.429935 
L 175.389699 178.429935 
L 175.506758 272.076387 
L 175.556926 178.429935 
L 175.573649 287.684129 
L 175.615456 287.684129 
L 175.82449 287.684129 
L 175.941548 170.626065 
L 176.025162 170.626065 
L 176.041885 295.488 
L 176.13386 170.626065 
L 176.351255 170.626065 
L 176.468314 287.684129 
L 176.618818 287.684129 
L 176.677347 264.272516 
L 176.744238 272.076387 
L 177.036885 272.076387 
L 177.153944 178.429935 
L 177.262642 178.429935 
L 177.379701 295.488 
L 177.530205 295.488 
L 177.647264 170.626065 
L 177.697432 170.626065 
L 177.814491 287.684129 
L 177.998441 287.684129 
L 178.1155 170.626065 
L 178.307811 170.626065 
L 178.42487 295.488 
L 178.491761 295.488 
L 178.617181 279.880258 
L 178.767685 279.880258 
L 178.826215 287.684129 
L 178.876383 279.880258 
L 178.993442 279.880258 
L 179.010164 178.429935 
L 179.102139 272.076387 
L 179.235921 272.076387 
L 179.302812 178.429935 
L 179.344618 272.076387 
L 179.428232 272.076387 
L 179.520207 178.429935 
L 179.528568 279.880258 
L 179.536929 279.880258 
L 179.628904 279.880258 
L 179.745963 170.626065 
L 179.863022 272.076387 
L 179.938274 272.076387 
L 180.055333 178.429935 
L 180.256006 178.429935 
L 180.314535 170.626065 
L 180.431594 295.488 
L 180.866384 295.488 
L 180.983443 279.880258 
L 181.309536 279.880258 
L 181.426595 295.488 
L 181.685797 295.488 
L 181.802856 170.626065 
L 182.254369 170.626065 
L 182.371428 295.488 
L 182.965083 295.488 
L 183.082142 178.429935 
L 183.215924 178.429935 
L 183.274453 272.076387 
L 183.332983 264.272516 
L 183.349706 264.272516 
L 183.450042 162.822194 
L 183.483487 240.860903 
L 183.533655 240.860903 
L 183.550378 162.822194 
L 183.558739 264.272516 
L 183.633992 264.272516 
L 183.642353 264.272516 
L 183.759412 248.664774 
L 183.817941 248.664774 
L 183.851387 162.822194 
L 183.918278 256.468645 
L 183.926639 256.468645 
L 183.985168 256.468645 
L 184.026975 272.076387 
L 184.085505 178.429935 
L 184.093866 279.880258 
L 184.135673 279.880258 
L 184.277816 279.880258 
L 184.394875 170.626065 
L 184.411597 170.626065 
L 184.528656 295.488 
L 185.005253 295.488 
L 185.122312 162.822194 
L 185.247732 162.822194 
L 185.364791 240.860903 
L 185.523657 240.860903 
L 185.640716 233.057032 
L 185.657439 233.057032 
L 185.690884 240.860903 
L 185.707607 233.057032 
L 185.715968 162.822194 
L 185.807943 287.684129 
L 185.84975 287.684129 
L 185.966809 279.880258 
L 186.008615 279.880258 
L 186.125674 225.253161 
L 186.167481 225.253161 
L 186.28454 186.233806 
L 186.309624 186.233806 
L 186.384876 272.076387 
L 186.401599 170.626065 
L 186.418322 170.626065 
L 186.485212 170.626065 
L 186.602271 295.488 
L 203.851739 295.488 
L 203.968798 287.684129 
L 204.152748 287.684129 
L 204.269806 295.488 
L 204.91363 295.488 
L 205.030689 170.626065 
L 205.440396 170.626065 
L 205.557455 295.488 
L 208.718045 295.488 
L 208.835104 170.626065 
L 209.019054 170.626065 
L 209.136113 295.488 
L 212.08767 295.488 
L 212.121115 170.626065 
L 212.196367 279.880258 
L 212.380317 279.880258 
L 212.530821 162.822194 
L 212.723133 162.822194 
L 212.840191 272.076387 
L 212.881998 272.076387 
L 212.940528 279.880258 
L 212.999057 170.626065 
L 213.116116 295.488 
L 213.743217 295.488 
L 213.751579 162.822194 
L 213.851915 233.057032 
L 213.918806 233.057032 
L 214.044226 147.214452 
L 214.06931 147.214452 
L 214.102755 209.645419 
L 214.228176 201.841548 
L 214.261621 194.037677 
L 214.269982 217.44929 
L 214.336873 201.841548 
L 214.387041 201.841548 
L 214.445571 209.645419 
L 214.56263 139.410581 
L 214.596075 139.410581 
L 214.713134 217.44929 
L 214.738218 217.44929 
L 214.846916 233.057032 
L 215.030865 162.822194 
L 215.039227 162.822194 
L 215.156286 264.272516 
L 215.273345 279.880258 
L 215.281706 279.880258 
L 215.398765 178.429935 
L 215.407126 178.429935 
L 215.524185 279.880258 
L 215.582715 279.880258 
L 215.599437 162.822194 
L 215.691412 240.860903 
L 215.724858 240.860903 
L 215.833555 233.057032 
L 215.858639 240.860903 
L 215.892085 233.057032 
L 215.975698 186.233806 
L 216.000782 217.44929 
L 216.017505 217.44929 
L 216.05095 186.233806 
L 216.059312 233.057032 
L 216.117841 233.057032 
L 216.151287 233.057032 
L 216.268345 264.272516 
L 216.276707 264.272516 
L 216.36032 272.076387 
L 216.477379 178.429935 
L 216.494102 178.429935 
L 216.611161 287.684129 
L 216.619522 170.626065 
L 216.627884 295.488 
L 216.719858 295.488 
L 217.062674 295.488 
L 217.179733 170.626065 
L 217.522548 170.626065 
L 217.539271 279.880258 
L 217.639607 272.076387 
L 217.698136 272.076387 
L 217.815195 178.429935 
L 217.882086 178.429935 
L 217.999145 287.684129 
L 218.024229 287.684129 
L 218.158011 178.429935 
L 218.174734 287.684129 
L 218.266708 248.664774 
L 218.408851 248.664774 
L 218.52591 162.822194 
L 218.659692 162.822194 
L 218.760028 256.468645 
L 218.768389 170.626065 
L 219.035953 170.626065 
L 219.153012 295.488 
L 219.805197 295.488 
L 219.922256 272.076387 
L 220.331962 272.076387 
L 220.449021 287.684129 
L 220.474105 287.684129 
L 220.591164 295.488 
L 220.783475 295.488 
L 220.900534 170.626065 
L 220.908895 170.626065 
L 220.959063 272.076387 
L 221.101206 248.664774 
L 221.193181 248.664774 
L 221.243349 162.822194 
L 221.301879 225.253161 
L 221.360408 225.253161 
L 221.427299 194.037677 
L 221.477467 217.44929 
L 221.544358 217.44929 
L 221.602888 162.822194 
L 221.67814 264.272516 
L 221.853728 264.272516 
L 221.98751 287.684129 
L 221.995871 287.684129 
L 222.004232 170.626065 
L 222.012594 295.488 
L 222.104569 295.488 
L 222.188182 295.488 
L 222.29688 170.626065 
L 222.36377 287.684129 
L 222.413939 279.880258 
L 222.656418 279.880258 
L 222.773477 295.488 
L 222.873813 295.488 
L 222.990872 170.626065 
L 223.300242 170.626065 
L 223.417301 287.684129 
L 223.425662 287.684129 
L 223.517637 279.880258 
L 223.53436 287.684129 
L 223.609612 287.684129 
L 223.726671 279.880258 
L 223.7852 279.880258 
L 223.902259 178.429935 
L 223.935705 178.429935 
L 224.052763 279.880258 
L 224.069486 279.880258 
L 224.186545 287.684129 
L 224.203268 287.684129 
L 224.320327 295.488 
L 224.328688 295.488 
L 224.454108 279.880258 
L 224.46247 279.880258 
L 224.579529 178.429935 
L 224.738394 178.429935 
L 224.855453 279.880258 
L 224.872176 279.880258 
L 224.980873 178.429935 
L 225.089571 287.684129 
L 225.173184 170.626065 
L 225.198269 272.076387 
L 225.256798 272.076387 
L 225.373857 264.272516 
L 225.516 264.272516 
L 225.541084 272.076387 
L 225.607975 178.429935 
L 225.616336 279.880258 
L 225.649782 279.880258 
L 225.666504 279.880258 
L 225.791924 295.488 
L 226.837093 295.488 
L 226.954152 279.880258 
L 227.146463 279.880258 
L 227.271884 264.272516 
L 227.405665 264.272516 
L 227.514363 279.880258 
L 227.631422 178.429935 
L 227.698313 178.429935 
L 227.815371 279.880258 
L 227.832094 279.880258 
L 227.93243 287.684129 
L 227.999321 178.429935 
L 228.041128 264.272516 
L 228.108019 264.272516 
L 228.166548 272.076387 
L 228.17491 256.468645 
L 228.208355 256.468645 
L 228.333775 256.468645 
L 228.350498 264.272516 
L 228.409027 248.664774 
L 228.417389 248.664774 
L 228.459196 162.822194 
L 228.526086 233.057032 
L 228.534448 233.057032 
L 228.651507 272.076387 
L 228.676591 272.076387 
L 228.79365 256.468645 
L 228.902347 256.468645 
L 228.935793 162.822194 
L 229.011045 240.860903 
L 229.019406 240.860903 
L 229.136465 264.272516 
L 229.220078 264.272516 
L 229.253524 178.429935 
L 229.328776 264.272516 
L 229.362221 264.272516 
L 229.47928 256.468645 
L 229.53781 256.468645 
L 229.654869 279.880258 
L 229.705037 279.880258 
L 229.822096 170.626065 
L 229.939155 178.429935 
L 230.006045 178.429935 
L 230.047852 279.880258 
L 230.123104 272.076387 
L 230.148188 272.076387 
L 230.28197 248.664774 
L 230.332138 264.272516 
L 230.382306 240.860903 
L 230.415752 240.860903 
L 230.432474 162.822194 
L 230.524449 217.44929 
L 230.616424 217.44929 
L 230.666592 186.233806 
L 230.733483 225.253161 
L 230.77529 225.253161 
L 230.792013 186.233806 
L 230.800374 240.860903 
L 230.883987 225.253161 
L 230.967601 225.253161 
L 230.984324 240.860903 
L 231.076298 162.822194 
L 231.193357 272.076387 
L 231.310416 272.076387 
L 231.352223 178.429935 
L 231.419114 256.468645 
L 231.444198 256.468645 
L 231.51945 178.429935 
L 231.527811 272.076387 
L 231.552895 272.076387 
L 231.628148 272.076387 
L 231.720122 178.429935 
L 231.728484 295.488 
L 231.736845 295.488 
L 231.770291 295.488 
L 231.88735 264.272516 
L 232.01277 264.272516 
L 232.037854 272.076387 
L 232.046215 256.468645 
L 232.062938 256.468645 
L 232.071299 162.822194 
L 232.171635 256.468645 
L 232.221804 248.664774 
L 232.280333 256.468645 
L 232.363947 256.468645 
L 232.414115 272.076387 
L 232.472644 256.468645 
L 232.673317 256.468645 
L 232.790375 279.880258 
L 232.807098 279.880258 
L 232.924157 287.684129 
L 233.049577 287.684129 
L 233.166636 295.488 
L 233.333863 295.488 
L 233.450922 170.626065 
L 233.509452 170.626065 
L 233.626511 287.684129 
L 233.877351 287.684129 
L 233.986049 279.880258 
L 234.019494 287.684129 
L 234.027855 272.076387 
L 234.086385 272.076387 
L 234.144914 272.076387 
L 234.161637 178.429935 
L 234.253612 256.468645 
L 234.328864 256.468645 
L 234.512814 162.822194 
L 234.629873 256.468645 
L 234.746932 240.860903 
L 234.755293 240.860903 
L 234.872352 256.468645 
L 234.897436 256.468645 
L 235.014495 178.429935 
L 235.089747 178.429935 
L 235.181722 272.076387 
L 235.198445 178.429935 
L 235.23189 178.429935 
L 235.265335 162.822194 
L 235.348949 264.272516 
L 235.432562 264.272516 
L 235.549621 256.468645 
L 235.624874 256.468645 
L 235.72521 248.664774 
L 235.733571 256.468645 
L 235.775378 256.468645 
L 235.867353 162.822194 
L 235.875714 264.272516 
L 235.884075 264.272516 
L 235.892437 264.272516 
L 235.942605 178.429935 
L 235.950966 279.880258 
L 236.001134 279.880258 
L 236.093109 279.880258 
L 236.118193 178.429935 
L 236.201807 256.468645 
L 236.293782 256.468645 
L 236.394118 240.860903 
L 236.402479 248.664774 
L 236.427563 248.664774 
L 236.544622 162.822194 
L 236.603152 162.822194 
L 236.720211 240.860903 
L 236.736933 240.860903 
L 236.753656 162.822194 
L 236.762017 256.468645 
L 236.845631 256.468645 
L 236.945967 287.684129 
L 237.004496 170.626065 
L 237.054665 279.880258 
L 237.096471 279.880258 
L 237.330589 162.822194 
L 237.372396 162.822194 
L 237.481093 240.860903 
L 237.564707 186.233806 
L 237.589791 233.057032 
L 237.648321 233.057032 
L 237.731934 240.860903 
L 237.740295 162.822194 
L 237.83227 272.076387 
L 237.957691 287.684129 
L 238.116556 287.684129 
L 238.233615 295.488 
L 238.484456 295.488 
L 238.534624 170.626065 
L 238.593153 279.880258 
L 238.660044 279.880258 
L 238.777103 178.429935 
L 238.902523 178.429935 
L 239.002859 272.076387 
L 239.019582 256.468645 
L 239.086473 256.468645 
L 239.119918 248.664774 
L 239.153364 272.076387 
L 239.186809 264.272516 
L 239.2537 264.272516 
L 239.287145 272.076387 
L 239.337313 162.822194 
L 239.395843 217.44929 
L 239.604877 123.802839 
L 239.638322 123.802839 
L 239.763742 139.410581 
L 239.772104 139.410581 
L 239.905885 115.998968 
L 240.064751 217.44929 
L 240.081474 217.44929 
L 240.140003 233.057032 
L 240.198533 186.233806 
L 240.206894 186.233806 
L 240.240339 240.860903 
L 240.315592 186.233806 
L 240.407566 186.233806 
L 240.524625 225.253161 
L 240.599878 225.253161 
L 240.666768 147.214452 
L 240.733659 155.018323 
L 240.783827 155.018323 
L 240.867441 217.44929 
L 240.900886 194.037677 
L 241.026306 194.037677 
L 241.05139 201.841548 
L 241.076475 194.037677 
L 241.151727 108.195097 
L 241.193533 123.802839 
L 241.23534 123.802839 
L 241.369122 209.645419 
L 241.444374 209.645419 
L 241.461097 194.037677 
L 241.477819 240.860903 
L 241.536349 240.860903 
L 241.578156 240.860903 
L 241.695215 194.037677 
L 241.711937 194.037677 
L 241.770467 240.860903 
L 241.778828 162.822194 
L 241.828996 233.057032 
L 241.91261 233.057032 
L 241.937694 240.860903 
L 241.946055 186.233806 
L 241.971139 186.233806 
L 242.004585 186.233806 
L 242.121643 225.253161 
L 242.146727 225.253161 
L 242.263786 194.037677 
L 242.313955 194.037677 
L 242.414291 217.44929 
L 242.431013 186.233806 
L 242.522988 217.44929 
L 242.573156 217.44929 
L 242.59824 186.233806 
L 242.623324 248.664774 
L 242.673493 248.664774 
L 242.748745 248.664774 
L 242.865804 295.488 
L 242.915972 295.488 
L 242.991224 170.626065 
L 243.024669 279.880258 
L 243.133367 279.880258 
L 243.27551 162.822194 
L 243.283871 240.860903 
L 243.292233 240.860903 
L 243.417653 194.037677 
L 243.484544 194.037677 
L 243.52635 209.645419 
L 243.593241 194.037677 
L 243.626687 194.037677 
L 243.727023 217.44929 
L 243.760468 186.233806 
L 243.83572 217.44929 
L 243.869166 162.822194 
L 243.977863 272.076387 
L 244.094922 178.429935 
L 244.120006 178.429935 
L 244.237065 279.880258 
L 244.354124 279.880258 
L 244.471183 170.626065 
L 244.805637 170.626065 
L 244.922696 295.488 
L 244.989587 295.488 
L 245.00631 170.626065 
L 245.098284 272.076387 
L 245.123369 272.076387 
L 245.240427 264.272516 
L 245.407654 264.272516 
L 245.524713 248.664774 
L 245.633411 248.664774 
L 245.650134 264.272516 
L 245.666856 248.664774 
L 245.725386 162.822194 
L 245.767193 256.468645 
L 245.775554 256.468645 
L 245.817361 256.468645 
L 245.93442 162.822194 
L 246.051479 240.860903 
L 246.101647 256.468645 
L 246.168537 248.664774 
L 246.285596 248.664774 
L 246.31068 272.076387 
L 246.319042 178.429935 
L 246.444462 178.429935 
L 246.561521 279.880258 
L 246.67858 287.684129 
L 246.737109 287.684129 
L 246.912698 178.429935 
L 246.921059 272.076387 
L 247.029757 256.468645 
L 247.088286 256.468645 
L 247.146816 272.076387 
L 247.196984 256.468645 
L 247.314043 248.664774 
L 247.322404 248.664774 
L 247.439463 162.822194 
L 247.48127 162.822194 
L 247.598328 272.076387 
L 247.698665 272.076387 
L 247.807362 256.468645 
L 247.815724 264.272516 
L 247.832446 264.272516 
L 247.949505 272.076387 
L 247.966228 272.076387 
L 247.991312 279.880258 
L 248.083287 178.429935 
L 248.125094 178.429935 
L 248.133455 279.880258 
L 248.242153 272.076387 
L 248.258875 272.076387 
L 248.375934 248.664774 
L 248.451186 248.664774 
L 248.492993 162.822194 
L 248.568245 186.233806 
L 248.618413 186.233806 
L 248.735472 225.253161 
L 248.768918 225.253161 
L 248.810724 233.057032 
L 248.885977 186.233806 
L 248.894338 186.233806 
L 248.919422 240.860903 
L 248.927783 162.822194 
L 248.994674 162.822194 
L 249.003035 162.822194 
L 249.120094 256.468645 
L 249.136817 256.468645 
L 249.195347 272.076387 
L 249.203708 178.429935 
L 249.228792 178.429935 
L 249.345851 272.076387 
L 249.437826 279.880258 
L 249.46291 178.429935 
L 249.546523 248.664774 
L 249.58833 248.664774 
L 249.671944 233.057032 
L 249.697028 240.860903 
L 249.864255 240.860903 
L 249.872616 162.822194 
L 249.8977 256.468645 
L 249.972952 256.468645 
L 250.006398 256.468645 
L 250.08165 248.664774 
L 250.106734 256.468645 
L 250.148541 178.429935 
L 250.223793 287.684129 
L 250.340852 170.626065 
L 250.382658 170.626065 
L 250.499717 279.880258 
L 250.625138 279.880258 
L 250.650222 287.684129 
L 250.692028 279.880258 
L 250.708751 178.429935 
L 250.800726 272.076387 
L 250.926146 272.076387 
L 251.018121 248.664774 
L 251.034844 264.272516 
L 251.051567 264.272516 
L 251.19371 162.822194 
L 251.210432 240.860903 
L 251.310768 233.057032 
L 251.327491 233.057032 
L 251.352575 240.860903 
L 251.360937 162.822194 
L 251.494718 162.822194 
L 251.611777 256.468645 
L 251.661945 256.468645 
L 251.687029 248.664774 
L 251.787365 272.076387 
L 251.887702 162.822194 
L 251.804088 279.880258 
L 251.896063 225.253161 
L 252.054929 225.253161 
L 252.138542 194.037677 
L 252.163626 217.44929 
L 252.230517 217.44929 
L 252.272324 186.233806 
L 252.280685 225.253161 
L 252.339215 217.44929 
L 252.37266 217.44929 
L 252.397744 186.233806 
L 252.431189 233.057032 
L 252.472996 233.057032 
L 252.523164 233.057032 
L 252.598417 162.822194 
L 252.539887 256.468645 
L 252.631862 240.860903 
L 252.690391 240.860903 
L 252.715475 248.664774 
L 252.832534 162.822194 
L 252.874341 162.822194 
L 252.9914 256.468645 
L 253.024845 256.468645 
L 253.075014 272.076387 
L 253.133543 264.272516 
L 253.141904 264.272516 
L 253.233879 178.429935 
L 253.242241 279.880258 
L 253.250602 279.880258 
L 253.267325 279.880258 
L 253.317493 178.429935 
L 253.376022 256.468645 
L 253.434552 256.468645 
L 253.551611 248.664774 
L 253.677031 248.664774 
L 253.752283 264.272516 
L 253.777367 240.860903 
L 253.894426 240.860903 
L 253.969678 162.822194 
L 253.978039 272.076387 
L 253.994762 264.272516 
L 254.070014 264.272516 
L 254.153628 272.076387 
L 254.161989 256.468645 
L 254.170351 256.468645 
L 254.212157 256.468645 
L 254.362662 217.44929 
L 254.387746 217.44929 
L 254.471359 186.233806 
L 254.41283 240.860903 
L 254.496443 225.253161 
L 254.605141 225.253161 
L 254.621864 186.233806 
L 254.7222 194.037677 
L 254.772368 194.037677 
L 254.855981 225.253161 
L 254.881065 186.233806 
L 254.906149 162.822194 
L 254.914511 240.860903 
L 254.964679 240.860903 
L 254.989763 240.860903 
L 255.039931 162.822194 
L 255.098461 248.664774 
L 255.115183 248.664774 
L 255.148629 162.822194 
L 255.223881 194.037677 
L 255.257326 194.037677 
L 255.28241 186.233806 
L 255.290772 225.253161 
L 255.34094 217.44929 
L 255.449637 217.44929 
L 255.491444 225.253161 
L 255.499805 186.233806 
L 255.524889 186.233806 
L 255.549973 186.233806 
L 255.641948 240.860903 
L 255.667032 233.057032 
L 255.750646 233.057032 
L 255.809175 264.272516 
L 255.917873 178.429935 
L 255.934596 272.076387 
L 256.026571 178.429935 
L 256.043293 178.429935 
L 256.160352 272.076387 
L 256.168713 272.076387 
L 256.285772 256.468645 
L 256.411193 272.076387 
L 256.553336 272.076387 
L 256.595142 279.880258 
L 256.603504 264.272516 
L 256.653672 264.272516 
L 256.678756 264.272516 
L 256.804176 279.880258 
L 256.820899 279.880258 
L 256.937958 178.429935 
L 257.230605 178.429935 
L 257.347664 295.488 
L 258.200522 295.488 
L 258.317581 170.626065 
L 258.643673 170.626065 
L 258.760732 287.684129 
L 258.877791 170.626065 
L 258.969766 170.626065 
L 259.05338 279.880258 
L 259.086825 272.076387 
L 259.195523 272.076387 
L 259.312582 264.272516 
L 259.337666 264.272516 
L 259.463086 248.664774 
L 259.596867 248.664774 
L 259.688842 264.272516 
L 259.73901 178.429935 
L 259.747372 272.076387 
L 259.79754 264.272516 
L 259.805901 264.272516 
L 259.92296 256.468645 
L 259.98149 256.468645 
L 260.098549 264.272516 
L 260.165439 264.272516 
L 260.282498 256.468645 
L 260.366112 256.468645 
L 260.374473 248.664774 
L 260.449725 272.076387 
L 260.458087 272.076387 
L 260.474809 272.076387 
L 260.5417 178.429935 
L 260.550062 279.880258 
L 260.583507 279.880258 
L 260.66712 279.880258 
L 260.708927 287.684129 
L 260.742373 178.429935 
L 260.817625 272.076387 
L 260.85107 272.076387 
L 260.968129 264.272516 
L 261.001574 264.272516 
L 261.118633 272.076387 
L 261.34439 272.076387 
L 261.419642 287.684129 
L 261.486533 170.626065 
L 261.494894 295.488 
L 261.52834 295.488 
L 261.795903 295.488 
L 261.912962 170.626065 
L 262.013298 170.626065 
L 262.030021 287.684129 
L 262.130357 272.076387 
L 262.163802 272.076387 
L 262.331029 217.44929 
L 262.339391 217.44929 
L 262.364475 194.037677 
L 262.448088 217.44929 
L 262.52334 217.44929 
L 262.640399 194.037677 
L 262.673845 186.233806 
L 262.76582 240.860903 
L 262.782542 240.860903 
L 262.874517 233.057032 
L 262.949769 272.076387 
L 262.983215 264.272516 
L 263.07519 162.822194 
L 263.091912 233.057032 
L 263.100274 233.057032 
L 263.217333 240.860903 
L 263.426366 240.860903 
L 263.476534 162.822194 
L 263.535064 256.468645 
L 263.585232 256.468645 
L 263.735736 295.488 
L 263.969854 178.429935 
L 264.053468 178.429935 
L 264.170527 272.076387 
L 264.229056 272.076387 
L 264.346115 178.429935 
L 264.371199 178.429935 
L 264.404644 279.880258 
L 264.413006 170.626065 
L 264.479897 170.626065 
L 264.521703 170.626065 
L 264.638762 295.488 
L 265.499981 295.488 
L 265.600318 170.626065 
L 265.608679 287.684129 
L 266.143806 287.684129 
L 266.260864 170.626065 
L 266.269226 170.626065 
L 266.386285 295.488 
L 274.095451 295.488 
L 274.212509 170.626065 
L 274.730913 170.626065 
L 274.847972 295.488 
L 285.675922 295.488 
L 285.692645 170.626065 
L 285.78462 287.684129 
L 285.876594 287.684129 
L 285.935124 178.429935 
L 285.985292 264.272516 
L 286.127435 264.272516 
L 286.252855 248.664774 
L 286.311385 248.664774 
L 286.34483 264.272516 
L 286.461889 178.429935 
L 286.520418 178.429935 
L 286.637477 287.684129 
L 286.71273 287.684129 
L 286.771259 170.626065 
L 286.77962 295.488 
L 286.821427 272.076387 
L 286.930125 272.076387 
L 287.072268 162.822194 
L 287.189327 162.822194 
L 287.306385 264.272516 
L 287.348192 264.272516 
L 287.465251 170.626065 
L 287.515419 170.626065 
L 287.632478 287.684129 
L 287.64084 287.684129 
L 287.757898 170.626065 
L 288.150882 170.626065 
L 288.267941 295.488 
L 288.518781 295.488 
L 288.63584 170.626065 
L 289.154244 170.626065 
L 289.271303 295.488 
L 290.324833 295.488 
L 290.441892 170.626065 
L 290.951935 170.626065 
L 290.960296 287.684129 
L 291.060632 248.664774 
L 291.068994 248.664774 
L 291.094078 186.233806 
L 291.177691 225.253161 
L 291.395086 225.253161 
L 291.42017 233.057032 
L 291.428532 162.822194 
L 291.436893 162.822194 
L 291.487061 162.822194 
L 291.60412 295.488 
L 292.013826 295.488 
L 292.030549 170.626065 
L 292.130885 178.429935 
L 292.423532 178.429935 
L 292.482062 279.880258 
L 292.490423 170.626065 
L 292.53223 170.626065 
L 292.65765 170.626065 
L 292.774709 295.488 
L 292.799793 295.488 
L 292.891768 170.626065 
L 292.908491 287.684129 
L 292.941936 287.684129 
L 293.02555 162.822194 
L 293.100802 240.860903 
L 293.15097 240.860903 
L 293.301474 201.841548 
L 293.435256 201.841548 
L 293.552315 225.253161 
L 293.627567 170.626065 
L 293.635928 295.488 
L 293.64429 295.488 
L 293.803155 295.488 
L 293.828239 170.626065 
L 293.911853 287.684129 
L 293.978744 287.684129 
L 294.104164 272.076387 
L 294.405173 272.076387 
L 294.463702 178.429935 
L 294.472063 279.880258 
L 294.51387 279.880258 
L 294.555677 279.880258 
L 294.597484 287.684129 
L 294.614206 170.626065 
L 294.622568 295.488 
L 294.706181 295.488 
L 306.052535 295.488 
L 306.169594 170.626065 
L 306.687998 170.626065 
L 306.805057 295.488 
L 309.070983 295.488 
L 309.188042 170.626065 
L 309.438882 170.626065 
L 309.555941 287.684129 
L 309.723168 287.684129 
L 309.840227 170.626065 
L 310.074345 170.626065 
L 310.191404 295.488 
L 310.224849 295.488 
L 310.341908 170.626065 
L 310.450606 170.626065 
L 310.567665 287.684129 
L 310.860312 287.684129 
L 310.977371 170.626065 
L 311.102791 170.626065 
L 311.21985 295.488 
L 320.459143 295.488 
L 320.576202 279.880258 
L 321.102967 279.880258 
L 321.186581 295.488 
L 321.211665 279.880258 
L 321.822043 279.880258 
L 321.939102 295.488 
L 323.46923 295.488 
L 323.577927 162.822194 
L 323.59465 233.057032 
L 323.686625 194.037677 
L 323.736793 194.037677 
L 323.745154 209.645419 
L 323.7786 139.410581 
L 323.812045 139.410581 
L 323.853852 139.410581 
L 324.004356 100.391226 
L 324.021079 100.391226 
L 324.113054 61.371871 
L 324.146499 84.783484 
L 324.163222 84.783484 
L 324.255197 155.018323 
L 324.330449 139.410581 
L 324.372255 139.410581 
L 324.455869 209.645419 
L 324.489314 201.841548 
L 324.614735 108.195097 
L 324.631457 123.802839 
L 324.64818 84.783484 
L 324.723432 108.195097 
L 324.765239 108.195097 
L 324.7736 84.783484 
L 324.873937 92.587355 
L 324.882298 92.587355 
L 324.907382 61.371871 
L 324.940827 108.195097 
L 324.990995 92.587355 
L 325.032802 92.587355 
L 325.158222 108.195097 
L 325.200029 108.195097 
L 325.358895 209.645419 
L 325.400702 209.645419 
L 325.467592 225.253161 
L 325.475954 186.233806 
L 325.492677 186.233806 
L 325.509399 186.233806 
L 325.567929 240.860903 
L 325.542845 162.822194 
L 325.626458 233.057032 
L 325.651542 233.057032 
L 325.668265 194.037677 
L 325.76024 217.44929 
L 325.818769 217.44929 
L 325.927467 194.037677 
L 326.044526 217.44929 
L 326.06961 217.44929 
L 326.153223 194.037677 
L 326.178307 217.44929 
L 326.211753 217.44929 
L 326.303728 233.057032 
L 326.32045 225.253161 
L 326.362257 225.253161 
L 326.454232 162.822194 
L 326.479316 186.233806 
L 326.487677 186.233806 
L 326.596375 233.057032 
L 326.604736 225.253161 
L 326.654904 225.253161 
L 326.705072 194.037677 
L 326.788686 201.841548 
L 326.81377 201.841548 
L 326.872299 147.214452 
L 326.914106 209.645419 
L 326.922468 194.037677 
L 326.930829 194.037677 
L 326.980997 233.057032 
L 326.947552 186.233806 
L 327.047888 225.253161 
L 327.089695 225.253161 
L 327.240199 186.233806 
L 327.357258 256.468645 
L 327.390703 256.468645 
L 327.457594 178.429935 
L 327.465955 279.880258 
L 327.491039 279.880258 
L 327.641544 279.880258 
L 327.74188 170.626065 
L 327.750241 295.488 
L 328.026166 295.488 
L 328.034527 170.626065 
L 328.134864 264.272516 
L 328.293729 264.272516 
L 328.435872 147.214452 
L 328.460956 155.018323 
L 328.48604 155.018323 
L 328.619822 84.783484 
L 328.636545 84.783484 
L 328.753603 53.568 
L 328.904108 92.587355 
L 328.945915 92.587355 
L 329.021167 139.410581 
L 329.096419 131.60671 
L 329.121503 100.391226 
L 329.205116 131.60671 
L 329.322175 139.410581 
L 329.330537 139.410581 
L 329.355621 115.998968 
L 329.380705 155.018323 
L 329.430873 147.214452 
L 329.455957 147.214452 
L 329.556293 155.018323 
L 329.656629 139.410581 
L 329.731882 209.645419 
L 329.773688 186.233806 
L 329.807134 186.233806 
L 329.823856 162.822194 
L 329.924193 256.468645 
L 329.965999 256.468645 
L 329.991083 272.076387 
L 330.016168 279.880258 
L 330.108142 178.429935 
L 330.133226 178.429935 
L 330.200117 272.076387 
L 330.241924 178.429935 
L 330.258647 178.429935 
L 330.300453 233.057032 
L 330.367344 194.037677 
L 330.392428 194.037677 
L 330.40079 209.645419 
L 330.450958 139.410581 
L 330.46768 139.410581 
L 330.509487 139.410581 
L 330.601462 131.60671 
L 330.618185 139.410581 
L 330.77705 139.410581 
L 331.01953 272.076387 
L 331.094782 170.626065 
L 331.036252 295.488 
L 331.128227 287.684129 
L 331.153311 287.684129 
L 331.27037 178.429935 
L 331.487765 178.429935 
L 331.496127 264.272516 
L 331.604824 256.468645 
L 331.721883 256.468645 
L 331.855665 279.880258 
L 332.07306 279.880258 
L 332.19848 295.488 
L 334.79886 295.488 
L 334.966087 178.429935 
L 334.98281 178.429935 
L 335.099869 272.076387 
L 335.392516 272.076387 
L 335.509575 170.626065 
L 335.634996 170.626065 
L 335.66008 295.488 
L 335.752054 279.880258 
L 336.253736 279.880258 
L 336.379156 295.488 
L 336.604912 295.488 
L 336.65508 170.626065 
L 336.71361 287.684129 
L 336.738694 287.684129 
L 336.855753 279.880258 
L 336.889198 279.880258 
L 337.006257 178.429935 
L 337.064787 178.429935 
L 337.181846 264.272516 
L 337.290543 272.076387 
L 337.407602 162.822194 
L 337.524661 162.822194 
L 337.64172 248.664774 
L 337.700249 248.664774 
L 337.817308 264.272516 
L 337.942728 264.272516 
L 338.059787 295.488 
L 338.160124 295.488 
L 338.268821 170.626065 
L 338.38588 287.684129 
L 338.795586 287.684129 
L 338.837393 170.626065 
L 338.845754 295.488 
L 338.904284 295.488 
L 339.163486 295.488 
L 339.180208 170.626065 
L 339.272183 264.272516 
L 339.288906 264.272516 
L 339.339074 186.233806 
L 339.431049 194.037677 
L 339.548108 209.645419 
L 339.656805 209.645419 
L 339.773864 201.841548 
L 339.790587 201.841548 
L 339.857478 186.233806 
L 339.882562 233.057032 
L 339.941091 162.822194 
L 339.982898 287.684129 
L 340.033066 287.684129 
L 340.150125 170.626065 
L 340.375882 279.880258 
L 340.400966 279.880258 
L 340.518025 178.429935 
L 340.760504 178.429935 
L 340.877563 170.626065 
L 340.994622 295.488 
L 341.91437 295.488 
L 342.031429 170.626065 
L 342.549833 170.626065 
L 342.666892 295.488 
L 349.272359 295.488 
L 349.389418 170.626065 
L 349.907822 170.626065 
L 349.999797 295.488 
L 350.01652 170.626065 
L 350.63526 170.626065 
L 350.752319 295.488 
L 357.065139 295.488 
L 357.182198 287.684129 
L 357.374509 287.684129 
L 357.491568 178.429935 
L 357.700601 178.429935 
L 357.81766 287.684129 
L 357.934719 178.429935 
L 358.009971 178.429935 
L 358.12703 295.488 
L 364.548548 295.488 
L 364.665607 170.626065 
L 364.707414 170.626065 
L 364.824473 287.684129 
L 365.209095 287.684129 
L 365.326154 170.626065 
L 365.359599 170.626065 
L 365.476658 295.488 
L 395.728027 295.488 
L 395.845086 287.684129 
L 396.137733 287.684129 
L 396.254792 295.488 
L 398.487273 295.488 
L 398.487273 295.488 
" style="fill:none;stroke:#1f77b4;stroke-linecap:square;stroke-width:1.5;"/>
   </g>
   <g id="patch_3">
    <path d="M 57.6 307.584 
L 57.6 41.472 
" style="fill:none;stroke:#000000;stroke-linecap:square;stroke-linejoin:miter;stroke-width:0.8;"/>
   </g>
   <g id="patch_4">
    <path d="M 414.72 307.584 
L 414.72 41.472 
" style="fill:none;stroke:#000000;stroke-linecap:square;stroke-linejoin:miter;stroke-width:0.8;"/>
   </g>
   <g id="patch_5">
    <path d="M 57.6 307.584 
L 414.72 307.584 
" style="fill:none;stroke:#000000;stroke-linecap:square;stroke-linejoin:miter;stroke-width:0.8;"/>
   </g>
   <g id="patch_6">
    <path d="M 57.6 41.472 
L 414.72 41.472 
" style="fill:none;stroke:#000000;stroke-linecap:square;stroke-linejoin:miter;stroke-width:0.8;"/>
   </g>
  </g>
 </g>
 <defs>
  <clipPath id="p544ebb27bd">
   <rect height="266.112" width="357.12" x="57.6" y="41.472"/>
  </clipPath>
 </defs>
</svg>
