<?xml version="1.0" encoding="utf-8" standalone="no"?>
<!DOCTYPE svg PUBLIC "-//W3C//DTD SVG 1.1//EN"
  "http://www.w3.org/Graphics/SVG/1.1/DTD/svg11.dtd">
<!-- Created with matplotlib (http://matplotlib.org/) -->
<svg height="345.6pt" version="1.1" viewBox="0 0 460.8 345.6" width="460.8pt" xmlns="http://www.w3.org/2000/svg" xmlns:xlink="http://www.w3.org/1999/xlink">
 <defs>
  <style type="text/css">
*{stroke-linecap:butt;stroke-linejoin:round;}
  </style>
 </defs>
 <g id="figure_1">
  <g id="patch_1">
   <path d="M 0 345.6 
L 460.8 345.6 
L 460.8 0 
L 0 0 
z
" style="fill:#ffffff;"/>
  </g>
  <g id="axes_1">
   <g id="patch_2">
    <path d="M 57.6 307.584 
L 414.72 307.584 
L 414.72 41.472 
L 57.6 41.472 
z
" style="fill:#ffffff;"/>
   </g>
   <g id="matplotlib.axis_1">
    <g id="xtick_1">
     <g id="line2d_1">
      <defs>
       <path d="M 0 0 
L 0 3.5 
" id="mb0925eb273" style="stroke:#000000;stroke-width:0.8;"/>
      </defs>
      <g>
       <use style="stroke:#000000;stroke-width:0.8;" x="73.770616" xlink:href="#mb0925eb273" y="307.584"/>
      </g>
     </g>
     <g id="text_1">
      <!-- 0 -->
      <defs>
       <path d="M 31.78125 66.40625 
Q 24.171875 66.40625 20.328125 58.90625 
Q 16.5 51.421875 16.5 36.375 
Q 16.5 21.390625 20.328125 13.890625 
Q 24.171875 6.390625 31.78125 6.390625 
Q 39.453125 6.390625 43.28125 13.890625 
Q 47.125 21.390625 47.125 36.375 
Q 47.125 51.421875 43.28125 58.90625 
Q 39.453125 66.40625 31.78125 66.40625 
z
M 31.78125 74.21875 
Q 44.046875 74.21875 50.515625 64.515625 
Q 56.984375 54.828125 56.984375 36.375 
Q 56.984375 17.96875 50.515625 8.265625 
Q 44.046875 -1.421875 31.78125 -1.421875 
Q 19.53125 -1.421875 13.0625 8.265625 
Q 6.59375 17.96875 6.59375 36.375 
Q 6.59375 54.828125 13.0625 64.515625 
Q 19.53125 74.21875 31.78125 74.21875 
z
" id="DejaVuSans-30"/>
      </defs>
      <g transform="translate(70.589366 322.182437)scale(0.1 -0.1)">
       <use xlink:href="#DejaVuSans-30"/>
      </g>
     </g>
    </g>
    <g id="xtick_2">
     <g id="line2d_2">
      <g>
       <use style="stroke:#000000;stroke-width:0.8;" x="135.881683" xlink:href="#mb0925eb273" y="307.584"/>
      </g>
     </g>
     <g id="text_2">
      <!-- 1000 -->
      <defs>
       <path d="M 12.40625 8.296875 
L 28.515625 8.296875 
L 28.515625 63.921875 
L 10.984375 60.40625 
L 10.984375 69.390625 
L 28.421875 72.90625 
L 38.28125 72.90625 
L 38.28125 8.296875 
L 54.390625 8.296875 
L 54.390625 0 
L 12.40625 0 
z
" id="DejaVuSans-31"/>
      </defs>
      <g transform="translate(123.156683 322.182437)scale(0.1 -0.1)">
       <use xlink:href="#DejaVuSans-31"/>
       <use x="63.623047" xlink:href="#DejaVuSans-30"/>
       <use x="127.246094" xlink:href="#DejaVuSans-30"/>
       <use x="190.869141" xlink:href="#DejaVuSans-30"/>
      </g>
     </g>
    </g>
    <g id="xtick_3">
     <g id="line2d_3">
      <g>
       <use style="stroke:#000000;stroke-width:0.8;" x="197.99275" xlink:href="#mb0925eb273" y="307.584"/>
      </g>
     </g>
     <g id="text_3">
      <!-- 2000 -->
      <defs>
       <path d="M 19.1875 8.296875 
L 53.609375 8.296875 
L 53.609375 0 
L 7.328125 0 
L 7.328125 8.296875 
Q 12.9375 14.109375 22.625 23.890625 
Q 32.328125 33.6875 34.8125 36.53125 
Q 39.546875 41.84375 41.421875 45.53125 
Q 43.3125 49.21875 43.3125 52.78125 
Q 43.3125 58.59375 39.234375 62.25 
Q 35.15625 65.921875 28.609375 65.921875 
Q 23.96875 65.921875 18.8125 64.3125 
Q 13.671875 62.703125 7.8125 59.421875 
L 7.8125 69.390625 
Q 13.765625 71.78125 18.9375 73 
Q 24.125 74.21875 28.421875 74.21875 
Q 39.75 74.21875 46.484375 68.546875 
Q 53.21875 62.890625 53.21875 53.421875 
Q 53.21875 48.921875 51.53125 44.890625 
Q 49.859375 40.875 45.40625 35.40625 
Q 44.1875 33.984375 37.640625 27.21875 
Q 31.109375 20.453125 19.1875 8.296875 
z
" id="DejaVuSans-32"/>
      </defs>
      <g transform="translate(185.26775 322.182437)scale(0.1 -0.1)">
       <use xlink:href="#DejaVuSans-32"/>
       <use x="63.623047" xlink:href="#DejaVuSans-30"/>
       <use x="127.246094" xlink:href="#DejaVuSans-30"/>
       <use x="190.869141" xlink:href="#DejaVuSans-30"/>
      </g>
     </g>
    </g>
    <g id="xtick_4">
     <g id="line2d_4">
      <g>
       <use style="stroke:#000000;stroke-width:0.8;" x="260.103816" xlink:href="#mb0925eb273" y="307.584"/>
      </g>
     </g>
     <g id="text_4">
      <!-- 3000 -->
      <defs>
       <path d="M 40.578125 39.3125 
Q 47.65625 37.796875 51.625 33 
Q 55.609375 28.21875 55.609375 21.1875 
Q 55.609375 10.40625 48.1875 4.484375 
Q 40.765625 -1.421875 27.09375 -1.421875 
Q 22.515625 -1.421875 17.65625 -0.515625 
Q 12.796875 0.390625 7.625 2.203125 
L 7.625 11.71875 
Q 11.71875 9.328125 16.59375 8.109375 
Q 21.484375 6.890625 26.8125 6.890625 
Q 36.078125 6.890625 40.9375 10.546875 
Q 45.796875 14.203125 45.796875 21.1875 
Q 45.796875 27.640625 41.28125 31.265625 
Q 36.765625 34.90625 28.71875 34.90625 
L 20.21875 34.90625 
L 20.21875 43.015625 
L 29.109375 43.015625 
Q 36.375 43.015625 40.234375 45.921875 
Q 44.09375 48.828125 44.09375 54.296875 
Q 44.09375 59.90625 40.109375 62.90625 
Q 36.140625 65.921875 28.71875 65.921875 
Q 24.65625 65.921875 20.015625 65.03125 
Q 15.375 64.15625 9.8125 62.3125 
L 9.8125 71.09375 
Q 15.4375 72.65625 20.34375 73.4375 
Q 25.25 74.21875 29.59375 74.21875 
Q 40.828125 74.21875 47.359375 69.109375 
Q 53.90625 64.015625 53.90625 55.328125 
Q 53.90625 49.265625 50.4375 45.09375 
Q 46.96875 40.921875 40.578125 39.3125 
z
" id="DejaVuSans-33"/>
      </defs>
      <g transform="translate(247.378816 322.182437)scale(0.1 -0.1)">
       <use xlink:href="#DejaVuSans-33"/>
       <use x="63.623047" xlink:href="#DejaVuSans-30"/>
       <use x="127.246094" xlink:href="#DejaVuSans-30"/>
       <use x="190.869141" xlink:href="#DejaVuSans-30"/>
      </g>
     </g>
    </g>
    <g id="xtick_5">
     <g id="line2d_5">
      <g>
       <use style="stroke:#000000;stroke-width:0.8;" x="322.214883" xlink:href="#mb0925eb273" y="307.584"/>
      </g>
     </g>
     <g id="text_5">
      <!-- 4000 -->
      <defs>
       <path d="M 37.796875 64.3125 
L 12.890625 25.390625 
L 37.796875 25.390625 
z
M 35.203125 72.90625 
L 47.609375 72.90625 
L 47.609375 25.390625 
L 58.015625 25.390625 
L 58.015625 17.1875 
L 47.609375 17.1875 
L 47.609375 0 
L 37.796875 0 
L 37.796875 17.1875 
L 4.890625 17.1875 
L 4.890625 26.703125 
z
" id="DejaVuSans-34"/>
      </defs>
      <g transform="translate(309.489883 322.182437)scale(0.1 -0.1)">
       <use xlink:href="#DejaVuSans-34"/>
       <use x="63.623047" xlink:href="#DejaVuSans-30"/>
       <use x="127.246094" xlink:href="#DejaVuSans-30"/>
       <use x="190.869141" xlink:href="#DejaVuSans-30"/>
      </g>
     </g>
    </g>
    <g id="xtick_6">
     <g id="line2d_6">
      <g>
       <use style="stroke:#000000;stroke-width:0.8;" x="384.32595" xlink:href="#mb0925eb273" y="307.584"/>
      </g>
     </g>
     <g id="text_6">
      <!-- 5000 -->
      <defs>
       <path d="M 10.796875 72.90625 
L 49.515625 72.90625 
L 49.515625 64.59375 
L 19.828125 64.59375 
L 19.828125 46.734375 
Q 21.96875 47.46875 24.109375 47.828125 
Q 26.265625 48.1875 28.421875 48.1875 
Q 40.625 48.1875 47.75 41.5 
Q 54.890625 34.8125 54.890625 23.390625 
Q 54.890625 11.625 47.5625 5.09375 
Q 40.234375 -1.421875 26.90625 -1.421875 
Q 22.3125 -1.421875 17.546875 -0.640625 
Q 12.796875 0.140625 7.71875 1.703125 
L 7.71875 11.625 
Q 12.109375 9.234375 16.796875 8.0625 
Q 21.484375 6.890625 26.703125 6.890625 
Q 35.15625 6.890625 40.078125 11.328125 
Q 45.015625 15.765625 45.015625 23.390625 
Q 45.015625 31 40.078125 35.4375 
Q 35.15625 39.890625 26.703125 39.890625 
Q 22.75 39.890625 18.8125 39.015625 
Q 14.890625 38.140625 10.796875 36.28125 
z
" id="DejaVuSans-35"/>
      </defs>
      <g transform="translate(371.60095 322.182437)scale(0.1 -0.1)">
       <use xlink:href="#DejaVuSans-35"/>
       <use x="63.623047" xlink:href="#DejaVuSans-30"/>
       <use x="127.246094" xlink:href="#DejaVuSans-30"/>
       <use x="190.869141" xlink:href="#DejaVuSans-30"/>
      </g>
     </g>
    </g>
    <g id="text_7">
     <!-- Genome -->
     <defs>
      <path d="M 59.515625 10.40625 
L 59.515625 29.984375 
L 43.40625 29.984375 
L 43.40625 38.09375 
L 69.28125 38.09375 
L 69.28125 6.78125 
Q 63.578125 2.734375 56.6875 0.65625 
Q 49.8125 -1.421875 42 -1.421875 
Q 24.90625 -1.421875 15.25 8.5625 
Q 5.609375 18.5625 5.609375 36.375 
Q 5.609375 54.25 15.25 64.234375 
Q 24.90625 74.21875 42 74.21875 
Q 49.125 74.21875 55.546875 72.453125 
Q 61.96875 70.703125 67.390625 67.28125 
L 67.390625 56.78125 
Q 61.921875 61.421875 55.765625 63.765625 
Q 49.609375 66.109375 42.828125 66.109375 
Q 29.4375 66.109375 22.71875 58.640625 
Q 16.015625 51.171875 16.015625 36.375 
Q 16.015625 21.625 22.71875 14.15625 
Q 29.4375 6.6875 42.828125 6.6875 
Q 48.046875 6.6875 52.140625 7.59375 
Q 56.25 8.5 59.515625 10.40625 
z
" id="DejaVuSans-47"/>
      <path d="M 56.203125 29.59375 
L 56.203125 25.203125 
L 14.890625 25.203125 
Q 15.484375 15.921875 20.484375 11.0625 
Q 25.484375 6.203125 34.421875 6.203125 
Q 39.59375 6.203125 44.453125 7.46875 
Q 49.3125 8.734375 54.109375 11.28125 
L 54.109375 2.78125 
Q 49.265625 0.734375 44.1875 -0.34375 
Q 39.109375 -1.421875 33.890625 -1.421875 
Q 20.796875 -1.421875 13.15625 6.1875 
Q 5.515625 13.8125 5.515625 26.8125 
Q 5.515625 40.234375 12.765625 48.109375 
Q 20.015625 56 32.328125 56 
Q 43.359375 56 49.78125 48.890625 
Q 56.203125 41.796875 56.203125 29.59375 
z
M 47.21875 32.234375 
Q 47.125 39.59375 43.09375 43.984375 
Q 39.0625 48.390625 32.421875 48.390625 
Q 24.90625 48.390625 20.390625 44.140625 
Q 15.875 39.890625 15.1875 32.171875 
z
" id="DejaVuSans-65"/>
      <path d="M 54.890625 33.015625 
L 54.890625 0 
L 45.90625 0 
L 45.90625 32.71875 
Q 45.90625 40.484375 42.875 44.328125 
Q 39.84375 48.1875 33.796875 48.1875 
Q 26.515625 48.1875 22.3125 43.546875 
Q 18.109375 38.921875 18.109375 30.90625 
L 18.109375 0 
L 9.078125 0 
L 9.078125 54.6875 
L 18.109375 54.6875 
L 18.109375 46.1875 
Q 21.34375 51.125 25.703125 53.5625 
Q 30.078125 56 35.796875 56 
Q 45.21875 56 50.046875 50.171875 
Q 54.890625 44.34375 54.890625 33.015625 
z
" id="DejaVuSans-6e"/>
      <path d="M 30.609375 48.390625 
Q 23.390625 48.390625 19.1875 42.75 
Q 14.984375 37.109375 14.984375 27.296875 
Q 14.984375 17.484375 19.15625 11.84375 
Q 23.34375 6.203125 30.609375 6.203125 
Q 37.796875 6.203125 41.984375 11.859375 
Q 46.1875 17.53125 46.1875 27.296875 
Q 46.1875 37.015625 41.984375 42.703125 
Q 37.796875 48.390625 30.609375 48.390625 
z
M 30.609375 56 
Q 42.328125 56 49.015625 48.375 
Q 55.71875 40.765625 55.71875 27.296875 
Q 55.71875 13.875 49.015625 6.21875 
Q 42.328125 -1.421875 30.609375 -1.421875 
Q 18.84375 -1.421875 12.171875 6.21875 
Q 5.515625 13.875 5.515625 27.296875 
Q 5.515625 40.765625 12.171875 48.375 
Q 18.84375 56 30.609375 56 
z
" id="DejaVuSans-6f"/>
      <path d="M 52 44.1875 
Q 55.375 50.25 60.0625 53.125 
Q 64.75 56 71.09375 56 
Q 79.640625 56 84.28125 50.015625 
Q 88.921875 44.046875 88.921875 33.015625 
L 88.921875 0 
L 79.890625 0 
L 79.890625 32.71875 
Q 79.890625 40.578125 77.09375 44.375 
Q 74.3125 48.1875 68.609375 48.1875 
Q 61.625 48.1875 57.5625 43.546875 
Q 53.515625 38.921875 53.515625 30.90625 
L 53.515625 0 
L 44.484375 0 
L 44.484375 32.71875 
Q 44.484375 40.625 41.703125 44.40625 
Q 38.921875 48.1875 33.109375 48.1875 
Q 26.21875 48.1875 22.15625 43.53125 
Q 18.109375 38.875 18.109375 30.90625 
L 18.109375 0 
L 9.078125 0 
L 9.078125 54.6875 
L 18.109375 54.6875 
L 18.109375 46.1875 
Q 21.1875 51.21875 25.484375 53.609375 
Q 29.78125 56 35.6875 56 
Q 41.65625 56 45.828125 52.96875 
Q 50 49.953125 52 44.1875 
z
" id="DejaVuSans-6d"/>
     </defs>
     <g transform="translate(215.034219 335.860562)scale(0.1 -0.1)">
      <use xlink:href="#DejaVuSans-47"/>
      <use x="77.490234" xlink:href="#DejaVuSans-65"/>
      <use x="139.013672" xlink:href="#DejaVuSans-6e"/>
      <use x="202.392578" xlink:href="#DejaVuSans-6f"/>
      <use x="263.574219" xlink:href="#DejaVuSans-6d"/>
      <use x="360.986328" xlink:href="#DejaVuSans-65"/>
     </g>
    </g>
   </g>
   <g id="matplotlib.axis_2">
    <g id="ytick_1">
     <g id="line2d_7">
      <defs>
       <path d="M 0 0 
L -3.5 0 
" id="m24783df671" style="stroke:#000000;stroke-width:0.8;"/>
      </defs>
      <g>
       <use style="stroke:#000000;stroke-width:0.8;" x="57.6" xlink:href="#m24783df671" y="295.488"/>
      </g>
     </g>
     <g id="text_8">
      <!-- 0 -->
      <g transform="translate(44.2375 299.287219)scale(0.1 -0.1)">
       <use xlink:href="#DejaVuSans-30"/>
      </g>
     </g>
    </g>
    <g id="ytick_2">
     <g id="line2d_8">
      <g>
       <use style="stroke:#000000;stroke-width:0.8;" x="57.6" xlink:href="#m24783df671" y="289.284923"/>
      </g>
     </g>
     <g id="text_9">
      <!-- 1 -->
      <g transform="translate(44.2375 293.084142)scale(0.1 -0.1)">
       <use xlink:href="#DejaVuSans-31"/>
      </g>
     </g>
    </g>
    <g id="ytick_3">
     <g id="line2d_9">
      <g>
       <use style="stroke:#000000;stroke-width:0.8;" x="57.6" xlink:href="#m24783df671" y="283.081846"/>
      </g>
     </g>
     <g id="text_10">
      <!-- 2 -->
      <g transform="translate(44.2375 286.881065)scale(0.1 -0.1)">
       <use xlink:href="#DejaVuSans-32"/>
      </g>
     </g>
    </g>
    <g id="ytick_4">
     <g id="line2d_10">
      <g>
       <use style="stroke:#000000;stroke-width:0.8;" x="57.6" xlink:href="#m24783df671" y="276.878769"/>
      </g>
     </g>
     <g id="text_11">
      <!-- 4 -->
      <g transform="translate(44.2375 280.677988)scale(0.1 -0.1)">
       <use xlink:href="#DejaVuSans-34"/>
      </g>
     </g>
    </g>
    <g id="ytick_5">
     <g id="line2d_11">
      <g>
       <use style="stroke:#000000;stroke-width:0.8;" x="57.6" xlink:href="#m24783df671" y="270.675692"/>
      </g>
     </g>
     <g id="text_12">
      <!-- 5 -->
      <g transform="translate(44.2375 274.474911)scale(0.1 -0.1)">
       <use xlink:href="#DejaVuSans-35"/>
      </g>
     </g>
    </g>
    <g id="ytick_6">
     <g id="line2d_12">
      <g>
       <use style="stroke:#000000;stroke-width:0.8;" x="57.6" xlink:href="#m24783df671" y="264.472615"/>
      </g>
     </g>
     <g id="text_13">
      <!-- 6 -->
      <defs>
       <path d="M 33.015625 40.375 
Q 26.375 40.375 22.484375 35.828125 
Q 18.609375 31.296875 18.609375 23.390625 
Q 18.609375 15.53125 22.484375 10.953125 
Q 26.375 6.390625 33.015625 6.390625 
Q 39.65625 6.390625 43.53125 10.953125 
Q 47.40625 15.53125 47.40625 23.390625 
Q 47.40625 31.296875 43.53125 35.828125 
Q 39.65625 40.375 33.015625 40.375 
z
M 52.59375 71.296875 
L 52.59375 62.3125 
Q 48.875 64.0625 45.09375 64.984375 
Q 41.3125 65.921875 37.59375 65.921875 
Q 27.828125 65.921875 22.671875 59.328125 
Q 17.53125 52.734375 16.796875 39.40625 
Q 19.671875 43.65625 24.015625 45.921875 
Q 28.375 48.1875 33.59375 48.1875 
Q 44.578125 48.1875 50.953125 41.515625 
Q 57.328125 34.859375 57.328125 23.390625 
Q 57.328125 12.15625 50.6875 5.359375 
Q 44.046875 -1.421875 33.015625 -1.421875 
Q 20.359375 -1.421875 13.671875 8.265625 
Q 6.984375 17.96875 6.984375 36.375 
Q 6.984375 53.65625 15.1875 63.9375 
Q 23.390625 74.21875 37.203125 74.21875 
Q 40.921875 74.21875 44.703125 73.484375 
Q 48.484375 72.75 52.59375 71.296875 
z
" id="DejaVuSans-36"/>
      </defs>
      <g transform="translate(44.2375 268.271834)scale(0.1 -0.1)">
       <use xlink:href="#DejaVuSans-36"/>
      </g>
     </g>
    </g>
    <g id="ytick_7">
     <g id="line2d_13">
      <g>
       <use style="stroke:#000000;stroke-width:0.8;" x="57.6" xlink:href="#m24783df671" y="258.269538"/>
      </g>
     </g>
     <g id="text_14">
      <!-- 8 -->
      <defs>
       <path d="M 31.78125 34.625 
Q 24.75 34.625 20.71875 30.859375 
Q 16.703125 27.09375 16.703125 20.515625 
Q 16.703125 13.921875 20.71875 10.15625 
Q 24.75 6.390625 31.78125 6.390625 
Q 38.8125 6.390625 42.859375 10.171875 
Q 46.921875 13.96875 46.921875 20.515625 
Q 46.921875 27.09375 42.890625 30.859375 
Q 38.875 34.625 31.78125 34.625 
z
M 21.921875 38.8125 
Q 15.578125 40.375 12.03125 44.71875 
Q 8.5 49.078125 8.5 55.328125 
Q 8.5 64.0625 14.71875 69.140625 
Q 20.953125 74.21875 31.78125 74.21875 
Q 42.671875 74.21875 48.875 69.140625 
Q 55.078125 64.0625 55.078125 55.328125 
Q 55.078125 49.078125 51.53125 44.71875 
Q 48 40.375 41.703125 38.8125 
Q 48.828125 37.15625 52.796875 32.3125 
Q 56.78125 27.484375 56.78125 20.515625 
Q 56.78125 9.90625 50.3125 4.234375 
Q 43.84375 -1.421875 31.78125 -1.421875 
Q 19.734375 -1.421875 13.25 4.234375 
Q 6.78125 9.90625 6.78125 20.515625 
Q 6.78125 27.484375 10.78125 32.3125 
Q 14.796875 37.15625 21.921875 38.8125 
z
M 18.3125 54.390625 
Q 18.3125 48.734375 21.84375 45.5625 
Q 25.390625 42.390625 31.78125 42.390625 
Q 38.140625 42.390625 41.71875 45.5625 
Q 45.3125 48.734375 45.3125 54.390625 
Q 45.3125 60.0625 41.71875 63.234375 
Q 38.140625 66.40625 31.78125 66.40625 
Q 25.390625 66.40625 21.84375 63.234375 
Q 18.3125 60.0625 18.3125 54.390625 
z
" id="DejaVuSans-38"/>
      </defs>
      <g transform="translate(44.2375 262.068757)scale(0.1 -0.1)">
       <use xlink:href="#DejaVuSans-38"/>
      </g>
     </g>
    </g>
    <g id="ytick_8">
     <g id="line2d_14">
      <g>
       <use style="stroke:#000000;stroke-width:0.8;" x="57.6" xlink:href="#m24783df671" y="252.066462"/>
      </g>
     </g>
     <g id="text_15">
      <!-- 10 -->
      <g transform="translate(37.875 255.86568)scale(0.1 -0.1)">
       <use xlink:href="#DejaVuSans-31"/>
       <use x="63.623047" xlink:href="#DejaVuSans-30"/>
      </g>
     </g>
    </g>
    <g id="ytick_9">
     <g id="line2d_15">
      <g>
       <use style="stroke:#000000;stroke-width:0.8;" x="57.6" xlink:href="#m24783df671" y="245.863385"/>
      </g>
     </g>
     <g id="text_16">
      <!-- 9 -->
      <defs>
       <path d="M 10.984375 1.515625 
L 10.984375 10.5 
Q 14.703125 8.734375 18.5 7.8125 
Q 22.3125 6.890625 25.984375 6.890625 
Q 35.75 6.890625 40.890625 13.453125 
Q 46.046875 20.015625 46.78125 33.40625 
Q 43.953125 29.203125 39.59375 26.953125 
Q 35.25 24.703125 29.984375 24.703125 
Q 19.046875 24.703125 12.671875 31.3125 
Q 6.296875 37.9375 6.296875 49.421875 
Q 6.296875 60.640625 12.9375 67.421875 
Q 19.578125 74.21875 30.609375 74.21875 
Q 43.265625 74.21875 49.921875 64.515625 
Q 56.59375 54.828125 56.59375 36.375 
Q 56.59375 19.140625 48.40625 8.859375 
Q 40.234375 -1.421875 26.421875 -1.421875 
Q 22.703125 -1.421875 18.890625 -0.6875 
Q 15.09375 0.046875 10.984375 1.515625 
z
M 30.609375 32.421875 
Q 37.25 32.421875 41.125 36.953125 
Q 45.015625 41.5 45.015625 49.421875 
Q 45.015625 57.28125 41.125 61.84375 
Q 37.25 66.40625 30.609375 66.40625 
Q 23.96875 66.40625 20.09375 61.84375 
Q 16.21875 57.28125 16.21875 49.421875 
Q 16.21875 41.5 20.09375 36.953125 
Q 23.96875 32.421875 30.609375 32.421875 
z
" id="DejaVuSans-39"/>
      </defs>
      <g transform="translate(44.2375 249.662603)scale(0.1 -0.1)">
       <use xlink:href="#DejaVuSans-39"/>
      </g>
     </g>
    </g>
    <g id="ytick_10">
     <g id="line2d_16">
      <g>
       <use style="stroke:#000000;stroke-width:0.8;" x="57.6" xlink:href="#m24783df671" y="239.660308"/>
      </g>
     </g>
     <g id="text_17">
      <!-- 12 -->
      <g transform="translate(37.875 243.459526)scale(0.1 -0.1)">
       <use xlink:href="#DejaVuSans-31"/>
       <use x="63.623047" xlink:href="#DejaVuSans-32"/>
      </g>
     </g>
    </g>
    <g id="ytick_11">
     <g id="line2d_17">
      <g>
       <use style="stroke:#000000;stroke-width:0.8;" x="57.6" xlink:href="#m24783df671" y="233.457231"/>
      </g>
     </g>
     <g id="text_18">
      <!-- 11 -->
      <g transform="translate(37.875 237.25645)scale(0.1 -0.1)">
       <use xlink:href="#DejaVuSans-31"/>
       <use x="63.623047" xlink:href="#DejaVuSans-31"/>
      </g>
     </g>
    </g>
    <g id="ytick_12">
     <g id="line2d_18">
      <g>
       <use style="stroke:#000000;stroke-width:0.8;" x="57.6" xlink:href="#m24783df671" y="227.254154"/>
      </g>
     </g>
     <g id="text_19">
      <!-- 7 -->
      <defs>
       <path d="M 8.203125 72.90625 
L 55.078125 72.90625 
L 55.078125 68.703125 
L 28.609375 0 
L 18.3125 0 
L 43.21875 64.59375 
L 8.203125 64.59375 
z
" id="DejaVuSans-37"/>
      </defs>
      <g transform="translate(44.2375 231.053373)scale(0.1 -0.1)">
       <use xlink:href="#DejaVuSans-37"/>
      </g>
     </g>
    </g>
    <g id="ytick_13">
     <g id="line2d_19">
      <g>
       <use style="stroke:#000000;stroke-width:0.8;" x="57.6" xlink:href="#m24783df671" y="221.051077"/>
      </g>
     </g>
     <g id="text_20">
      <!-- 3 -->
      <g transform="translate(44.2375 224.850296)scale(0.1 -0.1)">
       <use xlink:href="#DejaVuSans-33"/>
      </g>
     </g>
    </g>
    <g id="ytick_14">
     <g id="line2d_20">
      <g>
       <use style="stroke:#000000;stroke-width:0.8;" x="57.6" xlink:href="#m24783df671" y="214.848"/>
      </g>
     </g>
     <g id="text_21">
      <!-- 13 -->
      <g transform="translate(37.875 218.647219)scale(0.1 -0.1)">
       <use xlink:href="#DejaVuSans-31"/>
       <use x="63.623047" xlink:href="#DejaVuSans-33"/>
      </g>
     </g>
    </g>
    <g id="ytick_15">
     <g id="line2d_21">
      <g>
       <use style="stroke:#000000;stroke-width:0.8;" x="57.6" xlink:href="#m24783df671" y="208.644923"/>
      </g>
     </g>
     <g id="text_22">
      <!-- 14 -->
      <g transform="translate(37.875 212.444142)scale(0.1 -0.1)">
       <use xlink:href="#DejaVuSans-31"/>
       <use x="63.623047" xlink:href="#DejaVuSans-34"/>
      </g>
     </g>
    </g>
    <g id="ytick_16">
     <g id="line2d_22">
      <g>
       <use style="stroke:#000000;stroke-width:0.8;" x="57.6" xlink:href="#m24783df671" y="202.441846"/>
      </g>
     </g>
     <g id="text_23">
      <!-- 18 -->
      <g transform="translate(37.875 206.241065)scale(0.1 -0.1)">
       <use xlink:href="#DejaVuSans-31"/>
       <use x="63.623047" xlink:href="#DejaVuSans-38"/>
      </g>
     </g>
    </g>
    <g id="ytick_17">
     <g id="line2d_23">
      <g>
       <use style="stroke:#000000;stroke-width:0.8;" x="57.6" xlink:href="#m24783df671" y="196.238769"/>
      </g>
     </g>
     <g id="text_24">
      <!-- 20 -->
      <g transform="translate(37.875 200.037988)scale(0.1 -0.1)">
       <use xlink:href="#DejaVuSans-32"/>
       <use x="63.623047" xlink:href="#DejaVuSans-30"/>
      </g>
     </g>
    </g>
    <g id="ytick_18">
     <g id="line2d_24">
      <g>
       <use style="stroke:#000000;stroke-width:0.8;" x="57.6" xlink:href="#m24783df671" y="190.035692"/>
      </g>
     </g>
     <g id="text_25">
      <!-- 22 -->
      <g transform="translate(37.875 193.834911)scale(0.1 -0.1)">
       <use xlink:href="#DejaVuSans-32"/>
       <use x="63.623047" xlink:href="#DejaVuSans-32"/>
      </g>
     </g>
    </g>
    <g id="ytick_19">
     <g id="line2d_25">
      <g>
       <use style="stroke:#000000;stroke-width:0.8;" x="57.6" xlink:href="#m24783df671" y="183.832615"/>
      </g>
     </g>
     <g id="text_26">
      <!-- 23 -->
      <g transform="translate(37.875 187.631834)scale(0.1 -0.1)">
       <use xlink:href="#DejaVuSans-32"/>
       <use x="63.623047" xlink:href="#DejaVuSans-33"/>
      </g>
     </g>
    </g>
    <g id="ytick_20">
     <g id="line2d_26">
      <g>
       <use style="stroke:#000000;stroke-width:0.8;" x="57.6" xlink:href="#m24783df671" y="177.629538"/>
      </g>
     </g>
     <g id="text_27">
      <!-- 24 -->
      <g transform="translate(37.875 181.428757)scale(0.1 -0.1)">
       <use xlink:href="#DejaVuSans-32"/>
       <use x="63.623047" xlink:href="#DejaVuSans-34"/>
      </g>
     </g>
    </g>
    <g id="ytick_21">
     <g id="line2d_27">
      <g>
       <use style="stroke:#000000;stroke-width:0.8;" x="57.6" xlink:href="#m24783df671" y="171.426462"/>
      </g>
     </g>
     <g id="text_28">
      <!-- 26 -->
      <g transform="translate(37.875 175.22568)scale(0.1 -0.1)">
       <use xlink:href="#DejaVuSans-32"/>
       <use x="63.623047" xlink:href="#DejaVuSans-36"/>
      </g>
     </g>
    </g>
    <g id="ytick_22">
     <g id="line2d_28">
      <g>
       <use style="stroke:#000000;stroke-width:0.8;" x="57.6" xlink:href="#m24783df671" y="165.223385"/>
      </g>
     </g>
     <g id="text_29">
      <!-- 27 -->
      <g transform="translate(37.875 169.022603)scale(0.1 -0.1)">
       <use xlink:href="#DejaVuSans-32"/>
       <use x="63.623047" xlink:href="#DejaVuSans-37"/>
      </g>
     </g>
    </g>
    <g id="ytick_23">
     <g id="line2d_29">
      <g>
       <use style="stroke:#000000;stroke-width:0.8;" x="57.6" xlink:href="#m24783df671" y="159.020308"/>
      </g>
     </g>
     <g id="text_30">
      <!-- 29 -->
      <g transform="translate(37.875 162.819526)scale(0.1 -0.1)">
       <use xlink:href="#DejaVuSans-32"/>
       <use x="63.623047" xlink:href="#DejaVuSans-39"/>
      </g>
     </g>
    </g>
    <g id="ytick_24">
     <g id="line2d_30">
      <g>
       <use style="stroke:#000000;stroke-width:0.8;" x="57.6" xlink:href="#m24783df671" y="152.817231"/>
      </g>
     </g>
     <g id="text_31">
      <!-- 30 -->
      <g transform="translate(37.875 156.61645)scale(0.1 -0.1)">
       <use xlink:href="#DejaVuSans-33"/>
       <use x="63.623047" xlink:href="#DejaVuSans-30"/>
      </g>
     </g>
    </g>
    <g id="ytick_25">
     <g id="line2d_31">
      <g>
       <use style="stroke:#000000;stroke-width:0.8;" x="57.6" xlink:href="#m24783df671" y="146.614154"/>
      </g>
     </g>
     <g id="text_32">
      <!-- 31 -->
      <g transform="translate(37.875 150.413373)scale(0.1 -0.1)">
       <use xlink:href="#DejaVuSans-33"/>
       <use x="63.623047" xlink:href="#DejaVuSans-31"/>
      </g>
     </g>
    </g>
    <g id="ytick_26">
     <g id="line2d_32">
      <g>
       <use style="stroke:#000000;stroke-width:0.8;" x="57.6" xlink:href="#m24783df671" y="140.411077"/>
      </g>
     </g>
     <g id="text_33">
      <!-- 32 -->
      <g transform="translate(37.875 144.210296)scale(0.1 -0.1)">
       <use xlink:href="#DejaVuSans-33"/>
       <use x="63.623047" xlink:href="#DejaVuSans-32"/>
      </g>
     </g>
    </g>
    <g id="ytick_27">
     <g id="line2d_33">
      <g>
       <use style="stroke:#000000;stroke-width:0.8;" x="57.6" xlink:href="#m24783df671" y="134.208"/>
      </g>
     </g>
     <g id="text_34">
      <!-- 33 -->
      <g transform="translate(37.875 138.007219)scale(0.1 -0.1)">
       <use xlink:href="#DejaVuSans-33"/>
       <use x="63.623047" xlink:href="#DejaVuSans-33"/>
      </g>
     </g>
    </g>
    <g id="ytick_28">
     <g id="line2d_34">
      <g>
       <use style="stroke:#000000;stroke-width:0.8;" x="57.6" xlink:href="#m24783df671" y="128.004923"/>
      </g>
     </g>
     <g id="text_35">
      <!-- 35 -->
      <g transform="translate(37.875 131.804142)scale(0.1 -0.1)">
       <use xlink:href="#DejaVuSans-33"/>
       <use x="63.623047" xlink:href="#DejaVuSans-35"/>
      </g>
     </g>
    </g>
    <g id="ytick_29">
     <g id="line2d_35">
      <g>
       <use style="stroke:#000000;stroke-width:0.8;" x="57.6" xlink:href="#m24783df671" y="121.801846"/>
      </g>
     </g>
     <g id="text_36">
      <!-- 34 -->
      <g transform="translate(37.875 125.601065)scale(0.1 -0.1)">
       <use xlink:href="#DejaVuSans-33"/>
       <use x="63.623047" xlink:href="#DejaVuSans-34"/>
      </g>
     </g>
    </g>
    <g id="ytick_30">
     <g id="line2d_36">
      <g>
       <use style="stroke:#000000;stroke-width:0.8;" x="57.6" xlink:href="#m24783df671" y="115.598769"/>
      </g>
     </g>
     <g id="text_37">
      <!-- 36 -->
      <g transform="translate(37.875 119.397988)scale(0.1 -0.1)">
       <use xlink:href="#DejaVuSans-33"/>
       <use x="63.623047" xlink:href="#DejaVuSans-36"/>
      </g>
     </g>
    </g>
    <g id="ytick_31">
     <g id="line2d_37">
      <g>
       <use style="stroke:#000000;stroke-width:0.8;" x="57.6" xlink:href="#m24783df671" y="109.395692"/>
      </g>
     </g>
     <g id="text_38">
      <!-- 39 -->
      <g transform="translate(37.875 113.194911)scale(0.1 -0.1)">
       <use xlink:href="#DejaVuSans-33"/>
       <use x="63.623047" xlink:href="#DejaVuSans-39"/>
      </g>
     </g>
    </g>
    <g id="ytick_32">
     <g id="line2d_38">
      <g>
       <use style="stroke:#000000;stroke-width:0.8;" x="57.6" xlink:href="#m24783df671" y="103.192615"/>
      </g>
     </g>
     <g id="text_39">
      <!-- 40 -->
      <g transform="translate(37.875 106.991834)scale(0.1 -0.1)">
       <use xlink:href="#DejaVuSans-34"/>
       <use x="63.623047" xlink:href="#DejaVuSans-30"/>
      </g>
     </g>
    </g>
    <g id="ytick_33">
     <g id="line2d_39">
      <g>
       <use style="stroke:#000000;stroke-width:0.8;" x="57.6" xlink:href="#m24783df671" y="96.989538"/>
      </g>
     </g>
     <g id="text_40">
      <!-- 41 -->
      <g transform="translate(37.875 100.788757)scale(0.1 -0.1)">
       <use xlink:href="#DejaVuSans-34"/>
       <use x="63.623047" xlink:href="#DejaVuSans-31"/>
      </g>
     </g>
    </g>
    <g id="ytick_34">
     <g id="line2d_40">
      <g>
       <use style="stroke:#000000;stroke-width:0.8;" x="57.6" xlink:href="#m24783df671" y="90.786462"/>
      </g>
     </g>
     <g id="text_41">
      <!-- 38 -->
      <g transform="translate(37.875 94.58568)scale(0.1 -0.1)">
       <use xlink:href="#DejaVuSans-33"/>
       <use x="63.623047" xlink:href="#DejaVuSans-38"/>
      </g>
     </g>
    </g>
    <g id="ytick_35">
     <g id="line2d_41">
      <g>
       <use style="stroke:#000000;stroke-width:0.8;" x="57.6" xlink:href="#m24783df671" y="84.583385"/>
      </g>
     </g>
     <g id="text_42">
      <!-- 37 -->
      <g transform="translate(37.875 88.382603)scale(0.1 -0.1)">
       <use xlink:href="#DejaVuSans-33"/>
       <use x="63.623047" xlink:href="#DejaVuSans-37"/>
      </g>
     </g>
    </g>
    <g id="ytick_36">
     <g id="line2d_42">
      <g>
       <use style="stroke:#000000;stroke-width:0.8;" x="57.6" xlink:href="#m24783df671" y="78.380308"/>
      </g>
     </g>
     <g id="text_43">
      <!-- 28 -->
      <g transform="translate(37.875 82.179526)scale(0.1 -0.1)">
       <use xlink:href="#DejaVuSans-32"/>
       <use x="63.623047" xlink:href="#DejaVuSans-38"/>
      </g>
     </g>
    </g>
    <g id="ytick_37">
     <g id="line2d_43">
      <g>
       <use style="stroke:#000000;stroke-width:0.8;" x="57.6" xlink:href="#m24783df671" y="72.177231"/>
      </g>
     </g>
     <g id="text_44">
      <!-- 25 -->
      <g transform="translate(37.875 75.97645)scale(0.1 -0.1)">
       <use xlink:href="#DejaVuSans-32"/>
       <use x="63.623047" xlink:href="#DejaVuSans-35"/>
      </g>
     </g>
    </g>
    <g id="ytick_38">
     <g id="line2d_44">
      <g>
       <use style="stroke:#000000;stroke-width:0.8;" x="57.6" xlink:href="#m24783df671" y="65.974154"/>
      </g>
     </g>
     <g id="text_45">
      <!-- 21 -->
      <g transform="translate(37.875 69.773373)scale(0.1 -0.1)">
       <use xlink:href="#DejaVuSans-32"/>
       <use x="63.623047" xlink:href="#DejaVuSans-31"/>
      </g>
     </g>
    </g>
    <g id="ytick_39">
     <g id="line2d_45">
      <g>
       <use style="stroke:#000000;stroke-width:0.8;" x="57.6" xlink:href="#m24783df671" y="59.771077"/>
      </g>
     </g>
     <g id="text_46">
      <!-- 17 -->
      <g transform="translate(37.875 63.570296)scale(0.1 -0.1)">
       <use xlink:href="#DejaVuSans-31"/>
       <use x="63.623047" xlink:href="#DejaVuSans-37"/>
      </g>
     </g>
    </g>
    <g id="ytick_40">
     <g id="line2d_46">
      <g>
       <use style="stroke:#000000;stroke-width:0.8;" x="57.6" xlink:href="#m24783df671" y="53.568"/>
      </g>
     </g>
     <g id="text_47">
      <!-- 16 -->
      <g transform="translate(37.875 57.367219)scale(0.1 -0.1)">
       <use xlink:href="#DejaVuSans-31"/>
       <use x="63.623047" xlink:href="#DejaVuSans-36"/>
      </g>
     </g>
    </g>
    <g id="text_48">
     <!-- Read Depth -->
     <defs>
      <path d="M 44.390625 34.1875 
Q 47.5625 33.109375 50.5625 29.59375 
Q 53.5625 26.078125 56.59375 19.921875 
L 66.609375 0 
L 56 0 
L 46.6875 18.703125 
Q 43.0625 26.03125 39.671875 28.421875 
Q 36.28125 30.8125 30.421875 30.8125 
L 19.671875 30.8125 
L 19.671875 0 
L 9.8125 0 
L 9.8125 72.90625 
L 32.078125 72.90625 
Q 44.578125 72.90625 50.734375 67.671875 
Q 56.890625 62.453125 56.890625 51.90625 
Q 56.890625 45.015625 53.6875 40.46875 
Q 50.484375 35.9375 44.390625 34.1875 
z
M 19.671875 64.796875 
L 19.671875 38.921875 
L 32.078125 38.921875 
Q 39.203125 38.921875 42.84375 42.21875 
Q 46.484375 45.515625 46.484375 51.90625 
Q 46.484375 58.296875 42.84375 61.546875 
Q 39.203125 64.796875 32.078125 64.796875 
z
" id="DejaVuSans-52"/>
      <path d="M 34.28125 27.484375 
Q 23.390625 27.484375 19.1875 25 
Q 14.984375 22.515625 14.984375 16.5 
Q 14.984375 11.71875 18.140625 8.90625 
Q 21.296875 6.109375 26.703125 6.109375 
Q 34.1875 6.109375 38.703125 11.40625 
Q 43.21875 16.703125 43.21875 25.484375 
L 43.21875 27.484375 
z
M 52.203125 31.203125 
L 52.203125 0 
L 43.21875 0 
L 43.21875 8.296875 
Q 40.140625 3.328125 35.546875 0.953125 
Q 30.953125 -1.421875 24.3125 -1.421875 
Q 15.921875 -1.421875 10.953125 3.296875 
Q 6 8.015625 6 15.921875 
Q 6 25.140625 12.171875 29.828125 
Q 18.359375 34.515625 30.609375 34.515625 
L 43.21875 34.515625 
L 43.21875 35.40625 
Q 43.21875 41.609375 39.140625 45 
Q 35.0625 48.390625 27.6875 48.390625 
Q 23 48.390625 18.546875 47.265625 
Q 14.109375 46.140625 10.015625 43.890625 
L 10.015625 52.203125 
Q 14.9375 54.109375 19.578125 55.046875 
Q 24.21875 56 28.609375 56 
Q 40.484375 56 46.34375 49.84375 
Q 52.203125 43.703125 52.203125 31.203125 
z
" id="DejaVuSans-61"/>
      <path d="M 45.40625 46.390625 
L 45.40625 75.984375 
L 54.390625 75.984375 
L 54.390625 0 
L 45.40625 0 
L 45.40625 8.203125 
Q 42.578125 3.328125 38.25 0.953125 
Q 33.9375 -1.421875 27.875 -1.421875 
Q 17.96875 -1.421875 11.734375 6.484375 
Q 5.515625 14.40625 5.515625 27.296875 
Q 5.515625 40.1875 11.734375 48.09375 
Q 17.96875 56 27.875 56 
Q 33.9375 56 38.25 53.625 
Q 42.578125 51.265625 45.40625 46.390625 
z
M 14.796875 27.296875 
Q 14.796875 17.390625 18.875 11.75 
Q 22.953125 6.109375 30.078125 6.109375 
Q 37.203125 6.109375 41.296875 11.75 
Q 45.40625 17.390625 45.40625 27.296875 
Q 45.40625 37.203125 41.296875 42.84375 
Q 37.203125 48.484375 30.078125 48.484375 
Q 22.953125 48.484375 18.875 42.84375 
Q 14.796875 37.203125 14.796875 27.296875 
z
" id="DejaVuSans-64"/>
      <path id="DejaVuSans-20"/>
      <path d="M 19.671875 64.796875 
L 19.671875 8.109375 
L 31.59375 8.109375 
Q 46.6875 8.109375 53.6875 14.9375 
Q 60.6875 21.78125 60.6875 36.53125 
Q 60.6875 51.171875 53.6875 57.984375 
Q 46.6875 64.796875 31.59375 64.796875 
z
M 9.8125 72.90625 
L 30.078125 72.90625 
Q 51.265625 72.90625 61.171875 64.09375 
Q 71.09375 55.28125 71.09375 36.53125 
Q 71.09375 17.671875 61.125 8.828125 
Q 51.171875 0 30.078125 0 
L 9.8125 0 
z
" id="DejaVuSans-44"/>
      <path d="M 18.109375 8.203125 
L 18.109375 -20.796875 
L 9.078125 -20.796875 
L 9.078125 54.6875 
L 18.109375 54.6875 
L 18.109375 46.390625 
Q 20.953125 51.265625 25.265625 53.625 
Q 29.59375 56 35.59375 56 
Q 45.5625 56 51.78125 48.09375 
Q 58.015625 40.1875 58.015625 27.296875 
Q 58.015625 14.40625 51.78125 6.484375 
Q 45.5625 -1.421875 35.59375 -1.421875 
Q 29.59375 -1.421875 25.265625 0.953125 
Q 20.953125 3.328125 18.109375 8.203125 
z
M 48.6875 27.296875 
Q 48.6875 37.203125 44.609375 42.84375 
Q 40.53125 48.484375 33.40625 48.484375 
Q 26.265625 48.484375 22.1875 42.84375 
Q 18.109375 37.203125 18.109375 27.296875 
Q 18.109375 17.390625 22.1875 11.75 
Q 26.265625 6.109375 33.40625 6.109375 
Q 40.53125 6.109375 44.609375 11.75 
Q 48.6875 17.390625 48.6875 27.296875 
z
" id="DejaVuSans-70"/>
      <path d="M 18.3125 70.21875 
L 18.3125 54.6875 
L 36.8125 54.6875 
L 36.8125 47.703125 
L 18.3125 47.703125 
L 18.3125 18.015625 
Q 18.3125 11.328125 20.140625 9.421875 
Q 21.96875 7.515625 27.59375 7.515625 
L 36.8125 7.515625 
L 36.8125 0 
L 27.59375 0 
Q 17.1875 0 13.234375 3.875 
Q 9.28125 7.765625 9.28125 18.015625 
L 9.28125 47.703125 
L 2.6875 47.703125 
L 2.6875 54.6875 
L 9.28125 54.6875 
L 9.28125 70.21875 
z
" id="DejaVuSans-74"/>
      <path d="M 54.890625 33.015625 
L 54.890625 0 
L 45.90625 0 
L 45.90625 32.71875 
Q 45.90625 40.484375 42.875 44.328125 
Q 39.84375 48.1875 33.796875 48.1875 
Q 26.515625 48.1875 22.3125 43.546875 
Q 18.109375 38.921875 18.109375 30.90625 
L 18.109375 0 
L 9.078125 0 
L 9.078125 75.984375 
L 18.109375 75.984375 
L 18.109375 46.1875 
Q 21.34375 51.125 25.703125 53.5625 
Q 30.078125 56 35.796875 56 
Q 45.21875 56 50.046875 50.171875 
Q 54.890625 44.34375 54.890625 33.015625 
z
" id="DejaVuSans-68"/>
     </defs>
     <g transform="translate(31.795312 204.132688)rotate(-90)scale(0.1 -0.1)">
      <use xlink:href="#DejaVuSans-52"/>
      <use x="69.419922" xlink:href="#DejaVuSans-65"/>
      <use x="130.943359" xlink:href="#DejaVuSans-61"/>
      <use x="192.222656" xlink:href="#DejaVuSans-64"/>
      <use x="255.699219" xlink:href="#DejaVuSans-20"/>
      <use x="287.486328" xlink:href="#DejaVuSans-44"/>
      <use x="364.488281" xlink:href="#DejaVuSans-65"/>
      <use x="426.011719" xlink:href="#DejaVuSans-70"/>
      <use x="489.488281" xlink:href="#DejaVuSans-74"/>
      <use x="528.697266" xlink:href="#DejaVuSans-68"/>
     </g>
    </g>
   </g>
   <g id="line2d_47">
    <path clip-path="url(#pb262e7d2d9)" d="M 73.832727 295.488 
L 81.845055 295.488 
L 81.969277 289.284923 
L 86.006496 289.284923 
L 86.130718 295.488 
L 97.31071 295.488 
L 97.434933 289.284923 
L 97.993932 289.284923 
L 98.118154 283.081846 
L 98.863487 283.081846 
L 98.987709 276.878769 
L 99.733042 276.878769 
L 99.857264 270.675692 
L 102.031152 270.675692 
L 102.155374 276.878769 
L 102.465929 276.878769 
L 102.590151 283.081846 
L 102.714373 283.081846 
L 102.776484 289.284923 
L 102.900706 283.081846 
L 103.646039 283.081846 
L 103.70815 289.284923 
L 103.832372 283.081846 
L 103.956595 289.284923 
L 107.621148 289.284923 
L 107.74537 295.488 
L 115.260809 295.488 
L 115.385031 289.284923 
L 116.50303 289.284923 
L 116.627252 283.081846 
L 118.552695 283.081846 
L 118.676917 289.284923 
L 118.739028 289.284923 
L 118.863251 283.081846 
L 119.173806 283.081846 
L 119.298028 276.878769 
L 120.912916 276.878769 
L 121.037138 264.472615 
L 121.285582 264.472615 
L 121.347693 270.675692 
L 121.471915 264.472615 
L 123.45947 264.472615 
L 123.583692 270.675692 
L 123.832136 270.675692 
L 123.894247 264.472615 
L 124.018469 276.878769 
L 124.266913 276.878769 
L 124.453247 264.472615 
L 125.571246 264.472615 
L 125.695468 258.269538 
L 125.81969 264.472615 
L 125.943912 264.472615 
L 126.130245 245.863385 
L 126.502912 245.863385 
L 126.627134 252.066462 
L 128.552577 252.066462 
L 128.676799 245.863385 
L 129.049466 245.863385 
L 129.173688 258.269538 
L 129.235799 258.269538 
L 129.360021 239.660308 
L 129.546354 239.660308 
L 129.670576 233.457231 
L 130.415909 233.457231 
L 130.540131 245.863385 
L 130.726464 245.863385 
L 130.788575 270.675692 
L 130.850686 264.472615 
L 131.161242 264.472615 
L 131.285464 258.269538 
L 131.409686 227.254154 
L 131.65813 227.254154 
L 131.782352 258.269538 
L 133.459351 258.269538 
L 133.583573 245.863385 
L 134.142573 245.863385 
L 134.266795 270.675692 
L 134.639462 270.675692 
L 134.763684 264.472615 
L 135.571128 264.472615 
L 135.69535 270.675692 
L 135.881683 270.675692 
L 136.005905 221.051077 
L 136.502794 221.051077 
L 136.627016 283.081846 
L 138.179792 283.081846 
L 138.304014 289.284923 
L 139.359903 289.284923 
L 139.484125 295.488 
L 139.608347 289.284923 
L 140.105235 289.284923 
L 140.229458 283.081846 
L 143.956122 283.081846 
L 144.080344 289.284923 
L 144.825676 289.284923 
L 144.949899 295.488 
L 146.626897 295.488 
L 146.75112 289.284923 
L 147.807008 289.284923 
L 147.93123 295.488 
L 147.993341 295.488 
L 148.117563 289.284923 
L 149.421895 289.284923 
L 149.546118 221.051077 
L 151.223116 221.051077 
L 151.347338 283.081846 
L 152.527449 283.081846 
L 152.651671 221.051077 
L 153.645448 221.051077 
L 153.76967 270.675692 
L 154.142336 270.675692 
L 154.266559 221.051077 
L 155.260336 221.051077 
L 155.384558 276.878769 
L 157.310001 276.878769 
L 157.434223 221.051077 
L 158.365889 221.051077 
L 158.490111 289.284923 
L 159.297555 289.284923 
L 159.421777 283.081846 
L 159.856555 283.081846 
L 159.980777 289.284923 
L 160.415554 289.284923 
L 160.601887 264.472615 
L 161.533553 264.472615 
L 161.657776 227.254154 
L 162.154664 227.254154 
L 162.278886 258.269538 
L 163.148441 258.269538 
L 163.272663 252.066462 
L 163.769552 252.066462 
L 163.893774 245.863385 
L 164.639107 245.863385 
L 164.763329 227.254154 
L 164.949662 227.254154 
L 165.073884 270.675692 
L 165.322328 270.675692 
L 165.446551 276.878769 
L 166.378217 276.878769 
L 166.502439 221.051077 
L 166.750883 221.051077 
L 166.875105 283.081846 
L 167.434105 283.081846 
L 167.558327 295.488 
L 168.676326 295.488 
L 168.800548 289.284923 
L 170.66388 289.284923 
L 170.788102 283.081846 
L 170.912324 283.081846 
L 171.036547 221.051077 
L 171.533435 221.051077 
L 171.657657 276.878769 
L 172.527212 276.878769 
L 172.651434 270.675692 
L 173.024101 270.675692 
L 173.148323 264.472615 
L 173.396767 264.472615 
L 173.520989 270.675692 
L 173.5831 270.675692 
L 173.707322 227.254154 
L 173.831545 227.254154 
L 173.893656 258.269538 
L 173.955767 245.863385 
L 175.011655 245.863385 
L 175.135877 258.269538 
L 175.632766 258.269538 
L 175.756988 227.254154 
L 175.88121 258.269538 
L 176.253876 258.269538 
L 176.378098 227.254154 
L 177.371875 227.254154 
L 177.496098 264.472615 
L 177.744542 264.472615 
L 177.868764 227.254154 
L 177.930875 227.254154 
L 178.055097 264.472615 
L 178.303541 264.472615 
L 178.427764 276.878769 
L 178.614097 276.878769 
L 178.738319 283.081846 
L 179.048874 283.081846 
L 179.173096 221.051077 
L 179.669985 221.051077 
L 179.794207 276.878769 
L 180.477429 276.878769 
L 180.601651 221.051077 
L 181.533317 221.051077 
L 181.657539 283.081846 
L 181.843872 283.081846 
L 181.968094 221.051077 
L 182.402872 221.051077 
L 182.527094 276.878769 
L 182.589205 276.878769 
L 182.713427 270.675692 
L 182.89976 270.675692 
L 183.023982 264.472615 
L 183.148205 227.254154 
L 183.272427 258.269538 
L 183.520871 258.269538 
L 183.645093 245.863385 
L 183.769315 245.863385 
L 183.831426 258.269538 
L 183.955648 245.863385 
L 184.390426 245.863385 
L 184.514648 258.269538 
L 185.81898 258.269538 
L 185.943203 245.863385 
L 186.315869 245.863385 
L 186.440091 258.269538 
L 187.123313 258.269538 
L 187.247535 227.254154 
L 187.309646 227.254154 
L 187.433868 264.472615 
L 187.55809 227.254154 
L 187.682312 227.254154 
L 187.868646 276.878769 
L 188.241312 276.878769 
L 188.365534 221.051077 
L 188.489756 221.051077 
L 188.613978 283.081846 
L 190.166755 283.081846 
L 190.290977 221.051077 
L 190.415199 276.878769 
L 190.539422 221.051077 
L 190.849977 221.051077 
L 190.974199 283.081846 
L 194.017641 283.081846 
L 194.141863 295.488 
L 209.172742 295.488 
L 209.296964 283.081846 
L 209.359075 283.081846 
L 209.483297 276.878769 
L 209.731741 276.878769 
L 209.918074 264.472615 
L 210.104408 264.472615 
L 210.166519 227.254154 
L 210.290741 258.269538 
L 210.352852 258.269538 
L 210.477074 245.863385 
L 210.663407 245.863385 
L 210.973962 202.441846 
L 211.160296 190.035692 
L 211.470851 190.035692 
L 211.595073 183.832615 
L 211.657184 183.832615 
L 211.843517 171.426462 
L 212.091962 171.426462 
L 212.216184 165.223385 
L 212.464628 165.223385 
L 212.58885 159.020308 
L 212.775183 159.020308 
L 212.899406 152.817231 
L 213.085739 152.817231 
L 213.209961 146.614154 
L 213.76896 146.614154 
L 213.893183 140.411077 
L 214.017405 140.411077 
L 214.141627 128.004923 
L 214.203738 134.208 
L 214.32796 121.801846 
L 214.452182 128.004923 
L 214.638515 109.395692 
L 214.88696 109.395692 
L 214.949071 103.192615 
L 215.011182 109.395692 
L 215.073293 96.989538 
L 215.135404 103.192615 
L 215.259626 96.989538 
L 215.383848 96.989538 
L 215.50807 109.395692 
L 215.694404 84.583385 
L 215.880737 146.614154 
L 216.129181 128.004923 
L 216.253403 128.004923 
L 216.315514 121.801846 
L 216.501847 159.020308 
L 216.812403 159.020308 
L 216.936625 78.380308 
L 217.122958 78.380308 
L 217.24718 171.426462 
L 217.309291 171.426462 
L 217.433513 72.177231 
L 217.80618 72.177231 
L 217.930402 177.629538 
L 218.489402 177.629538 
L 218.613624 183.832615 
L 218.675735 183.832615 
L 218.737846 65.974154 
L 218.862068 196.238769 
L 218.924179 202.441846 
L 219.048401 59.771077 
L 219.172623 53.568 
L 219.234734 53.568 
L 219.358956 239.660308 
L 219.483179 252.066462 
L 219.54529 252.066462 
L 219.607401 245.863385 
L 219.793734 264.472615 
L 220.228511 264.472615 
L 220.352734 270.675692 
L 220.7254 270.675692 
L 220.911733 289.284923 
L 224.452064 289.284923 
L 224.576286 295.488 
L 235.010945 295.488 
L 235.135167 289.284923 
L 235.507834 289.284923 
L 235.632056 283.081846 
L 238.17861 283.081846 
L 238.302832 221.051077 
L 239.731386 221.051077 
L 239.855608 283.081846 
L 240.041942 283.081846 
L 240.166164 221.051077 
L 240.228275 221.051077 
L 240.352497 283.081846 
L 241.532607 283.081846 
L 241.656829 221.051077 
L 243.085384 221.051077 
L 243.209606 283.081846 
L 243.333828 270.675692 
L 244.513938 270.675692 
L 244.638161 264.472615 
L 244.762383 264.472615 
L 244.886605 270.675692 
L 246.253048 270.675692 
L 246.37727 276.878769 
L 246.687826 276.878769 
L 246.812048 270.675692 
L 247.49527 270.675692 
L 247.619492 264.472615 
L 247.930047 264.472615 
L 248.054269 221.051077 
L 248.799602 221.051077 
L 248.861713 276.878769 
L 248.923824 270.675692 
L 249.420713 270.675692 
L 249.544935 276.878769 
L 250.41449 276.878769 
L 250.538712 270.675692 
L 250.662934 227.254154 
L 251.408267 227.254154 
L 251.532489 264.472615 
L 251.718822 264.472615 
L 251.780933 227.254154 
L 251.905155 264.472615 
L 253.520043 264.472615 
L 253.706376 276.878769 
L 255.134931 276.878769 
L 255.259153 221.051077 
L 255.383375 289.284923 
L 256.004486 289.284923 
L 256.128708 295.488 
L 260.041705 295.488 
L 260.165927 289.284923 
L 260.787038 289.284923 
L 260.91126 283.081846 
L 264.700035 283.081846 
L 264.824257 289.284923 
L 264.948479 221.051077 
L 265.072702 276.878769 
L 265.321146 276.878769 
L 265.445368 258.269538 
L 265.507479 258.269538 
L 265.631701 227.254154 
L 265.818034 227.254154 
L 265.942256 258.269538 
L 267.246589 258.269538 
L 267.370811 245.863385 
L 268.613032 245.863385 
L 268.737254 252.066462 
L 269.234143 252.066462 
L 269.358365 239.660308 
L 269.606809 239.660308 
L 269.66892 252.066462 
L 269.731032 245.863385 
L 269.855254 245.863385 
L 269.979476 233.457231 
L 270.041587 233.457231 
L 270.165809 227.254154 
L 270.290031 227.254154 
L 270.414253 258.269538 
L 270.538475 258.269538 
L 270.662698 227.254154 
L 272.091252 227.254154 
L 272.215474 264.472615 
L 272.277585 264.472615 
L 272.401807 258.269538 
L 272.52603 258.269538 
L 272.650252 227.254154 
L 273.457696 227.254154 
L 273.581918 264.472615 
L 274.140917 264.472615 
L 274.265139 276.878769 
L 274.451473 276.878769 
L 274.575695 270.675692 
L 274.88625 270.675692 
L 275.010472 221.051077 
L 275.569472 221.051077 
L 275.693694 276.878769 
L 276.06636 276.878769 
L 276.190582 270.675692 
L 277.060137 270.675692 
L 277.18436 276.878769 
L 277.308582 221.051077 
L 277.494915 221.051077 
L 277.619137 276.878769 
L 277.867581 276.878769 
L 277.991803 270.675692 
L 278.923469 270.675692 
L 279.047692 264.472615 
L 279.171914 264.472615 
L 279.296136 270.675692 
L 280.041469 270.675692 
L 280.165691 264.472615 
L 280.289913 227.254154 
L 280.476246 227.254154 
L 280.600468 264.472615 
L 280.786801 264.472615 
L 280.911024 270.675692 
L 282.215356 270.675692 
L 282.339578 276.878769 
L 282.588022 276.878769 
L 282.712244 221.051077 
L 283.395466 221.051077 
L 283.519688 276.878769 
L 283.64391 276.878769 
L 283.768133 221.051077 
L 284.078688 221.051077 
L 284.20291 276.878769 
L 284.76191 276.878769 
L 284.886132 221.051077 
L 285.631465 221.051077 
L 285.755687 276.878769 
L 287.432686 276.878769 
L 287.556908 270.675692 
L 288.240129 270.675692 
L 288.364352 276.878769 
L 288.86124 276.878769 
L 288.985462 221.051077 
L 289.296018 221.051077 
L 289.42024 276.878769 
L 289.606573 276.878769 
L 289.730795 221.051077 
L 290.351906 221.051077 
L 290.476128 283.081846 
L 290.60035 283.081846 
L 290.662461 221.051077 
L 290.786683 276.878769 
L 290.910905 264.472615 
L 292.028904 264.472615 
L 292.153127 270.675692 
L 292.277349 270.675692 
L 292.401571 264.472615 
L 293.209015 264.472615 
L 293.333237 227.254154 
L 294.016459 227.254154 
L 294.140681 264.472615 
L 294.637569 264.472615 
L 294.69968 227.254154 
L 294.823902 258.269538 
L 295.010236 245.863385 
L 295.134458 252.066462 
L 295.196569 252.066462 
L 295.320791 233.457231 
L 295.445013 252.066462 
L 295.507124 252.066462 
L 295.631346 258.269538 
L 295.879791 258.269538 
L 296.004013 245.863385 
L 296.190346 245.863385 
L 296.314568 252.066462 
L 296.99779 252.066462 
L 297.122012 245.863385 
L 297.370456 245.863385 
L 297.494678 252.066462 
L 297.6189 233.457231 
L 297.743123 239.660308 
L 297.929456 239.660308 
L 298.053678 233.457231 
L 299.047455 233.457231 
L 299.171677 239.660308 
L 299.420121 239.660308 
L 299.606455 258.269538 
L 299.730677 258.269538 
L 299.854899 227.254154 
L 299.91701 258.269538 
L 300.041232 227.254154 
L 300.600232 227.254154 
L 300.724454 270.675692 
L 300.972898 270.675692 
L 301.09712 264.472615 
L 301.594009 264.472615 
L 301.718231 227.254154 
L 301.842453 227.254154 
L 301.966675 245.863385 
L 302.090897 245.863385 
L 302.215119 258.269538 
L 302.27723 258.269538 
L 302.339342 227.254154 
L 302.463564 264.472615 
L 303.457341 264.472615 
L 303.581563 227.254154 
L 303.767896 227.254154 
L 303.892118 264.472615 
L 304.57534 264.472615 
L 304.699562 270.675692 
L 305.693339 270.675692 
L 305.817561 276.878769 
L 306.31445 276.878769 
L 306.376561 221.051077 
L 306.500783 276.878769 
L 306.562894 276.878769 
L 306.625005 283.081846 
L 306.749227 221.051077 
L 306.93556 221.051077 
L 306.997672 276.878769 
L 307.059783 270.675692 
L 307.184005 270.675692 
L 307.308227 264.472615 
L 307.49456 264.472615 
L 307.618782 227.254154 
L 308.239893 227.254154 
L 308.364115 264.472615 
L 308.550448 264.472615 
L 308.67467 227.254154 
L 308.861004 227.254154 
L 308.985226 258.269538 
L 310.227447 258.269538 
L 310.289558 245.863385 
L 310.351669 252.066462 
L 310.475891 252.066462 
L 310.600113 233.457231 
L 311.097002 233.457231 
L 311.221224 252.066462 
L 311.345446 252.066462 
L 311.531779 233.457231 
L 311.656002 239.660308 
L 311.718113 233.457231 
L 311.842335 252.066462 
L 311.966557 252.066462 
L 312.090779 245.863385 
L 312.277112 245.863385 
L 312.401334 258.269538 
L 312.774001 258.269538 
L 312.898223 245.863385 
L 313.270889 245.863385 
L 313.395111 258.269538 
L 313.519334 258.269538 
L 313.643556 245.863385 
L 313.767778 245.863385 
L 313.892 252.066462 
L 314.016222 245.863385 
L 314.947888 245.863385 
L 315.07211 258.269538 
L 315.134221 227.254154 
L 315.258443 264.472615 
L 315.63111 264.472615 
L 315.755332 227.254154 
L 316.127998 227.254154 
L 316.25222 270.675692 
L 316.314332 276.878769 
L 316.438554 270.675692 
L 316.749109 270.675692 
L 316.873331 227.254154 
L 317.494442 227.254154 
L 317.618664 264.472615 
L 318.053441 264.472615 
L 318.177664 270.675692 
L 318.239775 270.675692 
L 318.301886 264.472615 
L 318.363997 227.254154 
L 318.426108 264.472615 
L 318.488219 227.254154 
L 318.612441 264.472615 
L 320.351551 264.472615 
L 320.475773 270.675692 
L 320.537884 270.675692 
L 320.662106 264.472615 
L 321.096884 264.472615 
L 321.221106 270.675692 
L 321.46955 270.675692 
L 321.593772 221.051077 
L 322.960216 221.051077 
L 323.084438 289.284923 
L 323.270771 289.284923 
L 323.394993 283.081846 
L 325.258325 283.081846 
L 325.382547 289.284923 
L 327.991212 289.284923 
L 328.115434 295.488 
L 329.792433 295.488 
L 329.916655 289.284923 
L 330.537766 289.284923 
L 330.661988 283.081846 
L 331.158876 283.081846 
L 331.283099 221.051077 
L 332.028431 221.051077 
L 332.152654 276.878769 
L 332.773764 276.878769 
L 332.897986 270.675692 
L 333.270653 270.675692 
L 333.456986 258.269538 
L 334.512874 258.269538 
L 334.637096 227.254154 
L 335.258207 227.254154 
L 335.382429 264.472615 
L 335.568762 264.472615 
L 335.692984 227.254154 
L 336.00354 227.254154 
L 336.127762 264.472615 
L 336.748872 264.472615 
L 336.873095 270.675692 
L 336.997317 264.472615 
L 337.121539 227.254154 
L 337.556316 227.254154 
L 337.680538 264.472615 
L 337.991094 264.472615 
L 338.115316 270.675692 
L 338.239538 221.051077 
L 339.668093 221.051077 
L 339.792315 276.878769 
L 340.351314 276.878769 
L 340.475536 221.051077 
L 341.593536 221.051077 
L 341.717758 283.081846 
L 341.779869 283.081846 
L 341.904091 289.284923 
L 344.388534 289.284923 
L 344.512756 295.488 
L 346.065532 295.488 
L 346.189755 289.284923 
L 349.171086 289.284923 
L 349.295308 283.081846 
L 349.605863 283.081846 
L 349.730085 221.051077 
L 350.785974 221.051077 
L 350.910196 283.081846 
L 353.891527 283.081846 
L 354.015749 289.284923 
L 354.450526 289.284923 
L 354.574749 295.488 
L 355.195859 295.488 
L 355.320081 264.472615 
L 355.568526 264.472615 
L 355.692748 227.254154 
L 355.941192 227.254154 
L 356.065414 258.269538 
L 356.624414 258.269538 
L 356.748636 283.081846 
L 356.872858 258.269538 
L 358.363524 258.269538 
L 358.487746 245.863385 
L 359.29519 245.863385 
L 359.357301 227.254154 
L 359.481523 264.472615 
L 359.729967 264.472615 
L 359.792078 270.675692 
L 359.9163 264.472615 
L 359.978411 264.472615 
L 360.102634 270.675692 
L 360.351078 270.675692 
L 360.4753 276.878769 
L 360.661633 276.878769 
L 360.785855 221.051077 
L 361.903854 221.051077 
L 362.028077 276.878769 
L 362.152299 276.878769 
L 362.276521 270.675692 
L 362.83552 270.675692 
L 362.959743 264.472615 
L 363.083965 264.472615 
L 363.208187 270.675692 
L 363.456631 270.675692 
L 363.580853 264.472615 
L 364.636741 264.472615 
L 364.823075 276.878769 
L 365.195741 276.878769 
L 365.382074 264.472615 
L 365.816852 264.472615 
L 365.941074 227.254154 
L 366.686407 227.254154 
L 366.810629 264.472615 
L 366.87274 264.472615 
L 366.996962 270.675692 
L 367.307517 270.675692 
L 367.431739 264.472615 
L 367.618073 264.472615 
L 367.742295 270.675692 
L 368.239183 270.675692 
L 368.363405 276.878769 
L 369.419294 276.878769 
L 369.543516 270.675692 
L 369.854071 270.675692 
L 369.916182 264.472615 
L 370.102515 276.878769 
L 370.537293 276.878769 
L 370.661515 221.051077 
L 372.027958 221.051077 
L 372.15218 283.081846 
L 373.767068 283.081846 
L 373.89129 221.051077 
L 374.139735 221.051077 
L 374.263957 283.081846 
L 374.574512 283.081846 
L 374.698734 289.284923 
L 374.822956 283.081846 
L 375.816733 283.081846 
L 375.940956 221.051077 
L 376.624177 221.051077 
L 376.748399 276.878769 
L 377.307399 276.878769 
L 377.431621 270.675692 
L 378.487509 270.675692 
L 378.611731 276.878769 
L 379.232842 276.878769 
L 379.357064 221.051077 
L 379.916064 221.051077 
L 380.040286 283.081846 
L 381.344618 283.081846 
L 381.46884 289.284923 
L 382.02784 289.284923 
L 382.152062 295.488 
L 386.68617 295.488 
L 386.810392 289.284923 
L 386.996725 289.284923 
L 387.120948 283.081846 
L 388.922168 283.081846 
L 389.046391 221.051077 
L 391.096056 221.051077 
L 391.220278 295.488 
L 398.487273 295.488 
L 398.487273 295.488 
" style="fill:none;stroke:#1f77b4;stroke-linecap:square;stroke-width:1.5;"/>
   </g>
   <g id="patch_3">
    <path d="M 57.6 307.584 
L 57.6 41.472 
" style="fill:none;stroke:#000000;stroke-linecap:square;stroke-linejoin:miter;stroke-width:0.8;"/>
   </g>
   <g id="patch_4">
    <path d="M 414.72 307.584 
L 414.72 41.472 
" style="fill:none;stroke:#000000;stroke-linecap:square;stroke-linejoin:miter;stroke-width:0.8;"/>
   </g>
   <g id="patch_5">
    <path d="M 57.6 307.584 
L 414.72 307.584 
" style="fill:none;stroke:#000000;stroke-linecap:square;stroke-linejoin:miter;stroke-width:0.8;"/>
   </g>
   <g id="patch_6">
    <path d="M 57.6 41.472 
L 414.72 41.472 
" style="fill:none;stroke:#000000;stroke-linecap:square;stroke-linejoin:miter;stroke-width:0.8;"/>
   </g>
  </g>
 </g>
 <defs>
  <clipPath id="pb262e7d2d9">
   <rect height="266.112" width="357.12" x="57.6" y="41.472"/>
  </clipPath>
 </defs>
</svg>
